<svg width="100" height="100" viewBox="0 0 100 100" fill="none" xmlns="http://www.w3.org/2000/svg">
<path d="M0 14C0 6.26801 6.26801 0 14 0H86C93.732 0 100 6.26801 100 14V86C100 93.732 93.732 100 86 100H14C6.26801 100 0 93.732 0 86V14Z" fill="#E0E7FF"/>
<path d="M70.4167 47.0833H29.5833C26.3617 47.0833 23.75 49.6949 23.75 52.9166V73.3333C23.75 76.5549 26.3617 79.1666 29.5833 79.1666H70.4167C73.6383 79.1666 76.25 76.5549 76.25 73.3333V52.9166C76.25 49.6949 73.6383 47.0833 70.4167 47.0833Z" stroke="#4F39F6" stroke-width="2.66667" stroke-linecap="round" stroke-linejoin="round"/>
<path d="M35.4167 47.0833V35.4166C35.4167 31.5488 36.9532 27.8395 39.6881 25.1046C42.423 22.3697 46.1323 20.8333 50.0001 20.8333C53.8678 20.8333 57.5772 22.3697 60.3121 25.1046C63.047 27.8395 64.5834 31.5488 64.5834 35.4166V47.0833" stroke="#4F39F6" stroke-width="2.66667" stroke-linecap="round" stroke-linejoin="round"/>
</svg>
