<svg width="22" height="22" viewBox="0 0 22 22" fill="none" xmlns="http://www.w3.org/2000/svg">
<path d="M20.8335 10.8334H18.3535C17.9165 10.8324 17.4912 10.9747 17.1426 11.2383C16.7941 11.502 16.5415 11.8726 16.4235 12.2934L14.0735 20.6534C14.0583 20.7053 14.0268 20.7509 13.9835 20.7834C13.9402 20.8158 13.8876 20.8334 13.8335 20.8334C13.7794 20.8334 13.7268 20.8158 13.6835 20.7834C13.6402 20.7509 13.6086 20.7053 13.5935 20.6534L8.0735 1.01337C8.05835 0.961445 8.02677 0.91583 7.9835 0.883374C7.94022 0.850918 7.88759 0.833374 7.8335 0.833374C7.7794 0.833374 7.72677 0.850918 7.6835 0.883374C7.64022 0.91583 7.60864 0.961445 7.5935 1.01337L5.2435 9.37337C5.12596 9.79253 4.87488 10.1619 4.52836 10.4254C4.18184 10.6889 3.75882 10.8321 3.3235 10.8334H0.833496" stroke="white" stroke-opacity="0.8" stroke-width="1.66667" stroke-linecap="round" stroke-linejoin="round"/>
</svg>
