<svg width="32" height="30" viewBox="0 0 32 30" fill="none" xmlns="http://www.w3.org/2000/svg">
<path d="M26.6666 16.25C26.6666 22.5 21.9999 25.625 16.4533 27.4375C16.1628 27.5297 15.8473 27.5253 15.5599 27.425C9.99992 25.625 5.33325 22.5 5.33325 16.25V7.49995C5.33325 7.16843 5.47373 6.85049 5.72378 6.61607C5.97383 6.38165 6.31296 6.24995 6.66659 6.24995C9.33325 6.24995 12.6666 4.74995 14.9866 2.84995C15.2691 2.6237 15.6284 2.49939 15.9999 2.49939C16.3714 2.49939 16.7308 2.6237 17.0133 2.84995C19.3466 4.76245 22.6666 6.24995 25.3333 6.24995C25.6869 6.24995 26.026 6.38165 26.2761 6.61607C26.5261 6.85049 26.6666 7.16843 26.6666 7.49995V16.25Z" stroke="white" stroke-width="1.66667" stroke-linecap="round" stroke-linejoin="round"/>
<path d="M12 15L14.6667 17.5L20 12.5" stroke="white" stroke-width="1.66667" stroke-linecap="round" stroke-linejoin="round"/>
</svg>
