<svg width="28" height="28" viewBox="0 0 28 28" fill="none" xmlns="http://www.w3.org/2000/svg">
<path d="M11.9795 24.5C12.1843 24.8547 12.4788 25.1492 12.8335 25.354C13.1882 25.5588 13.5906 25.6666 14.0002 25.6666C14.4097 25.6666 14.8121 25.5588 15.1668 25.354C15.5215 25.1492 15.816 24.8547 16.0208 24.5" stroke="#364153" stroke-width="2" stroke-linecap="round" stroke-linejoin="round"/>
<path d="M3.80579 17.8804C3.65338 18.0474 3.5528 18.2552 3.51629 18.4783C3.47977 18.7015 3.5089 18.9304 3.60012 19.1373C3.69133 19.3442 3.84072 19.5202 4.03009 19.6438C4.21946 19.7673 4.44067 19.8332 4.66679 19.8334H23.3335C23.5596 19.8335 23.7808 19.7678 23.9703 19.6445C24.1598 19.5212 24.3094 19.3454 24.4008 19.1386C24.4923 18.9319 24.5217 18.703 24.4855 18.4798C24.4492 18.2566 24.349 18.0488 24.1968 17.8815C22.6451 16.282 21.0001 14.5822 21.0001 9.33337C21.0001 7.47686 20.2626 5.69638 18.9499 4.38363C17.6371 3.07087 15.8566 2.33337 14.0001 2.33337C12.1436 2.33337 10.3631 3.07087 9.05038 4.38363C7.73762 5.69638 7.00012 7.47686 7.00012 9.33337C7.00012 14.5822 5.35396 16.282 3.80579 17.8804Z" stroke="#364153" stroke-width="2" stroke-linecap="round" stroke-linejoin="round"/>
</svg>
