<svg width="22" height="22" viewBox="0 0 22 22" fill="none" xmlns="http://www.w3.org/2000/svg">
<path d="M9.63889 20.4801C9.97671 20.6556 10.3599 20.748 10.75 20.748C11.1401 20.748 11.5233 20.6556 11.8611 20.4801L19.6389 16.4796C19.9764 16.3043 20.2567 16.0521 20.4517 15.7484C20.6467 15.4447 20.7496 15.1002 20.75 14.7495V6.74859C20.7496 6.39783 20.6467 6.05333 20.4517 5.74965C20.2567 5.44597 19.9764 5.19379 19.6389 5.01841L11.8611 1.01798C11.5233 0.842422 11.1401 0.75 10.75 0.75C10.3599 0.75 9.97671 0.842422 9.63889 1.01798L1.86111 5.01841C1.52363 5.19379 1.24331 5.44597 1.04829 5.74965C0.85327 6.05333 0.7504 6.39783 0.75 6.74859V14.7495C0.7504 15.1002 0.85327 15.4447 1.04829 15.7484C1.24331 16.0521 1.52363 16.3043 1.86111 16.4796L9.63889 20.4801Z" stroke="white" stroke-width="1.5" stroke-linecap="round" stroke-linejoin="round"/>
<path d="M10.75 20.7499V10.7488" stroke="white" stroke-width="1.5" stroke-linecap="round" stroke-linejoin="round"/>
<path d="M1.07227 5.74841L10.75 10.749L20.4278 5.74841" stroke="white" stroke-width="1.5" stroke-linecap="round" stroke-linejoin="round"/>
<path d="M5.75 3.01794L15.75 8.1685" stroke="white" stroke-width="1.5" stroke-linecap="round" stroke-linejoin="round"/>
</svg>
