<svg width="100" height="100" viewBox="0 0 100 100" fill="none" xmlns="http://www.w3.org/2000/svg">
<path d="M0 14C0 6.26801 6.26801 0 14 0H86C93.732 0 100 6.26801 100 14V86C100 93.732 93.732 100 86 100H14C6.26801 100 0 93.732 0 86V14Z" fill="#F3E8FF"/>
<path d="M50 67.5V29.5834" stroke="#9810FA" stroke-width="2.66667" stroke-linecap="round" stroke-linejoin="round"/>
<path d="M58.75 52.9167C56.2265 52.179 54.01 50.6435 52.4325 48.5402C50.855 46.4369 50.0016 43.8791 50 41.25C49.9984 43.8791 49.145 46.4369 47.5675 48.5402C45.99 50.6435 43.7735 52.179 41.25 52.9167" stroke="#9810FA" stroke-width="2.66667" stroke-linecap="round" stroke-linejoin="round"/>
<path d="M66.3275 33.9584C66.9986 32.7961 67.3934 31.4949 67.4812 30.1556C67.5691 28.8163 67.3476 27.4748 66.834 26.2347C66.3204 24.9947 65.5285 23.8895 64.5194 23.0045C63.5103 22.1195 62.3111 21.4786 61.0147 21.1312C59.7183 20.7838 58.3593 20.7393 57.0429 21.0012C55.7265 21.263 54.488 21.8242 53.4232 22.6413C52.3584 23.4584 51.4958 24.5095 50.9022 25.7132C50.3086 26.917 49.9999 28.2412 50 29.5834C50.0001 28.2412 49.6914 26.917 49.0978 25.7132C48.5042 24.5095 47.6416 23.4584 46.5768 22.6413C45.512 21.8242 44.2735 21.263 42.9571 21.0012C41.6407 20.7393 40.2817 20.7838 38.9853 21.1312C37.6889 21.4786 36.4897 22.1195 35.4806 23.0045C34.4715 23.8895 33.6796 24.9947 33.166 26.2347C32.6524 27.4748 32.4309 28.8163 32.5188 30.1556C32.6066 31.4949 33.0014 32.7961 33.6725 33.9584" stroke="#9810FA" stroke-width="2.66667" stroke-linecap="round" stroke-linejoin="round"/>
<path d="M67.4912 29.9479C69.2056 30.3887 70.7972 31.2139 72.1455 32.3609C73.4938 33.5079 74.5634 34.9467 75.2733 36.5683C75.9832 38.1899 76.3148 39.9517 76.243 41.7205C76.1712 43.4892 75.6978 45.2184 74.8587 46.777" stroke="#9810FA" stroke-width="2.66667" stroke-linecap="round" stroke-linejoin="round"/>
<path d="M67.5 67.5C70.0681 67.4999 72.5645 66.6524 74.6019 65.089C76.6393 63.5255 78.1039 61.3335 78.7686 58.8529C79.4333 56.3723 79.2609 53.7416 78.2782 51.369C77.2955 48.9963 75.5573 47.0142 73.3333 45.73" stroke="#9810FA" stroke-width="2.66667" stroke-linecap="round" stroke-linejoin="round"/>
<path d="M73.2372 65.9921C73.4416 67.5736 73.3196 69.1802 72.8787 70.7128C72.4379 72.2453 71.6875 73.6712 70.674 74.9024C69.6605 76.1335 68.4054 77.1439 66.9861 77.871C65.5668 78.598 64.0136 79.0264 62.4222 79.1297C60.8309 79.233 59.2353 79.0089 57.734 78.4714C56.2326 77.9338 54.8574 77.0941 53.6933 76.0043C52.5292 74.9144 51.6008 73.5975 50.9656 72.1348C50.3304 70.6721 50.0018 69.0947 50.0001 67.5C49.9984 69.0947 49.6698 70.6721 49.0346 72.1348C48.3993 73.5975 47.471 74.9144 46.3069 76.0043C45.1428 77.0941 43.7675 77.9338 42.2662 78.4714C40.7649 79.0089 39.1693 79.233 37.5779 79.1297C35.9866 79.0264 34.4333 78.598 33.014 77.871C31.5948 77.1439 30.3396 76.1335 29.3261 74.9024C28.3126 73.6712 27.5623 72.2453 27.1214 70.7128C26.6806 69.1802 26.5586 67.5736 26.763 65.9921" stroke="#9810FA" stroke-width="2.66667" stroke-linecap="round" stroke-linejoin="round"/>
<path d="M32.4999 67.5C29.9318 67.4999 27.4354 66.6524 25.398 65.089C23.3606 63.5255 21.896 61.3335 21.2313 58.8529C20.5666 56.3723 20.739 53.7416 21.7217 51.369C22.7044 48.9963 24.4426 47.0142 26.6666 45.73" stroke="#9810FA" stroke-width="2.66667" stroke-linecap="round" stroke-linejoin="round"/>
<path d="M32.5087 29.9479C30.7943 30.3887 29.2027 31.2139 27.8544 32.3609C26.5061 33.5079 25.4365 34.9467 24.7266 36.5683C24.0167 38.1899 23.6851 39.9517 23.7569 41.7205C23.8288 43.4892 24.3021 45.2184 25.1412 46.777" stroke="#9810FA" stroke-width="2.66667" stroke-linecap="round" stroke-linejoin="round"/>
</svg>
