<svg width="100" height="100" viewBox="0 0 100 100" fill="none" xmlns="http://www.w3.org/2000/svg">
<path d="M0 14C0 6.26801 6.26801 0 14 0H86C93.732 0 100 6.26801 100 14V86C100 93.732 93.732 100 86 100H14C6.26801 100 0 93.732 0 86V14Z" fill="#DBEAFE"/>
<path d="M50 32.5V50L61.6667 55.8333" stroke="#155DFC" stroke-width="2" stroke-linecap="round" stroke-linejoin="round"/>
<path d="M49.9999 79.1666C66.1082 79.1666 79.1666 66.1082 79.1666 49.9999C79.1666 33.8916 66.1082 20.8333 49.9999 20.8333C33.8916 20.8333 20.8333 33.8916 20.8333 49.9999C20.8333 66.1082 33.8916 79.1666 49.9999 79.1666Z" stroke="#155DFC" stroke-width="2" stroke-linecap="round" stroke-linejoin="round"/>
</svg>
