<svg width="22" height="22" viewBox="0 0 22 22" fill="none" xmlns="http://www.w3.org/2000/svg">
<path d="M14.8334 20.8334V18.6112C14.8334 17.4325 14.412 16.302 13.6619 15.4685C12.9117 14.635 11.8943 14.1667 10.8334 14.1667H4.83348C3.77262 14.1667 2.75521 14.635 2.00506 15.4685C1.25492 16.302 0.833496 17.4325 0.833496 18.6112V20.8334" stroke="white" stroke-opacity="0.8" stroke-width="1.66667" stroke-linecap="round" stroke-linejoin="round"/>
<path d="M14.8335 0.975342C15.6912 1.22242 16.4509 1.77897 16.9932 2.55763C17.5354 3.3363 17.8297 4.293 17.8297 5.27756C17.8297 6.26213 17.5354 7.21883 16.9932 7.99749C16.4509 8.77616 15.6912 9.33271 14.8335 9.57979" stroke="white" stroke-opacity="0.8" stroke-width="1.66667" stroke-linecap="round" stroke-linejoin="round"/>
<path d="M20.8335 20.8335V18.6113C20.8328 17.6265 20.5378 16.6699 19.9949 15.8916C19.4519 15.1133 18.6916 14.5575 17.8335 14.3113" stroke="white" stroke-opacity="0.8" stroke-width="1.66667" stroke-linecap="round" stroke-linejoin="round"/>
<path d="M7.83348 9.72226C10.0426 9.72226 11.8335 7.73242 11.8335 5.27782C11.8335 2.82322 10.0426 0.833374 7.83348 0.833374C5.62435 0.833374 3.8335 2.82322 3.8335 5.27782C3.8335 7.73242 5.62435 9.72226 7.83348 9.72226Z" stroke="white" stroke-opacity="0.8" stroke-width="1.66667" stroke-linecap="round" stroke-linejoin="round"/>
</svg>
