<svg width="36" height="36" viewBox="0 0 36 36" fill="none" xmlns="http://www.w3.org/2000/svg">
<path d="M0 18C0 8.05888 8.05888 0 18 0C27.9411 0 36 8.05888 36 18C36 27.9411 27.9411 36 18 36C8.05888 36 0 27.9411 0 18Z" fill="#DBEAFE"/>
<path d="M23.25 24.75V23.25C23.25 22.4544 22.9339 21.6913 22.3713 21.1287C21.8087 20.5661 21.0457 20.25 20.25 20.25H15.75C14.9544 20.25 14.1913 20.5661 13.6287 21.1287C13.0661 21.6913 12.75 22.4544 12.75 23.25V24.75" stroke="#155DFC" stroke-width="1.33333" stroke-linecap="round" stroke-linejoin="round"/>
<path d="M18 17.25C19.6569 17.25 21 15.9069 21 14.25C21 12.5931 19.6569 11.25 18 11.25C16.3431 11.25 15 12.5931 15 14.25C15 15.9069 16.3431 17.25 18 17.25Z" stroke="#155DFC" stroke-width="1.33333" stroke-linecap="round" stroke-linejoin="round"/>
</svg>
