<svg width="100" height="100" viewBox="0 0 100 100" fill="none" xmlns="http://www.w3.org/2000/svg">
<path d="M0 14C0 6.26801 6.26801 0 14 0H86C93.732 0 100 6.26801 100 14V86C100 93.732 93.732 100 86 100H14C6.26801 100 0 93.732 0 86V14Z" fill="#FFE2E2"/>
<path d="M44.9484 76.25C45.4604 77.1367 46.1967 77.873 47.0835 78.385C47.9702 78.8969 48.9761 79.1664 50 79.1664C51.0239 79.1664 52.0298 78.8969 52.9166 78.385C53.8033 77.873 54.5397 77.1367 55.0517 76.25" stroke="#E7000B" stroke-width="2.66667" stroke-linecap="round" stroke-linejoin="round"/>
<path d="M24.5141 59.7009C24.1331 60.1185 23.8816 60.6378 23.7904 61.1957C23.6991 61.7536 23.7719 62.326 23.9999 62.8433C24.228 63.3606 24.6014 63.8004 25.0749 64.1093C25.5483 64.4183 26.1013 64.583 26.6666 64.5834H73.3333C73.8985 64.5836 74.4517 64.4195 74.9254 64.1112C75.3991 63.8028 75.7731 63.3635 76.0017 62.8465C76.2304 62.3296 76.3039 61.7574 76.2133 61.1994C76.1228 60.6415 75.872 60.1219 75.4916 59.7038C71.6124 55.705 67.4999 51.4555 67.4999 38.3334C67.4999 33.6921 65.6562 29.2409 62.3743 25.959C59.0924 22.6771 54.6412 20.8334 49.9999 20.8334C45.3587 20.8334 40.9075 22.6771 37.6256 25.959C34.3437 29.2409 32.4999 33.6921 32.4999 38.3334C32.4999 51.4555 28.3845 55.705 24.5141 59.7009Z" stroke="#E7000B" stroke-width="2.66667" stroke-linecap="round" stroke-linejoin="round"/>
</svg>
