<svg width="100" height="100" viewBox="0 0 100 100" fill="none" xmlns="http://www.w3.org/2000/svg">
<path d="M0 14C0 6.26801 6.26801 0 14 0H86C93.732 0 100 6.26801 100 14V86C100 93.732 93.732 100 86 100H14C6.26801 100 0 93.732 0 86V14Z" fill="#E0E7FF"/>
<path d="M73.3334 52.9167C73.3334 67.5 63.1251 74.7917 50.9917 79.0208C50.3564 79.2361 49.6662 79.2258 49.0376 78.9917C36.8751 74.7917 26.6667 67.5 26.6667 52.9167V32.5C26.6667 31.7265 26.974 30.9846 27.521 30.4376C28.068 29.8906 28.8099 29.5833 29.5834 29.5833C35.4167 29.5833 42.7084 26.0833 47.7834 21.65C48.4013 21.1221 49.1874 20.832 50.0001 20.832C50.8128 20.832 51.5988 21.1221 52.2167 21.65C57.3209 26.1125 64.5834 29.5833 70.4167 29.5833C71.1903 29.5833 71.9322 29.8906 72.4791 30.4376C73.0261 30.9846 73.3334 31.7265 73.3334 32.5V52.9167Z" stroke="#4F39F6" stroke-width="2" stroke-linecap="round" stroke-linejoin="round"/>
<path d="M41.25 49.9998L47.0833 55.8332L58.75 44.1665" stroke="#4F39F6" stroke-width="2" stroke-linecap="round" stroke-linejoin="round"/>
</svg>
