<svg width="100" height="100" viewBox="0 0 100 100" fill="none" xmlns="http://www.w3.org/2000/svg">
<path d="M0 14C0 6.26801 6.26801 0 14 0H86C93.732 0 100 6.26801 100 14V86C100 93.732 93.732 100 86 100H14C6.26801 100 0 93.732 0 86V14Z" fill="#DCFCE7"/>
<path d="M78.5862 44.1665C79.9182 50.7036 78.9689 57.4998 75.8966 63.4217C72.8242 69.3437 67.8146 74.0333 61.7031 76.7087C55.5916 79.3841 48.7476 79.8834 42.3125 78.1234C35.8773 76.3635 30.2401 72.4506 26.3407 67.0373C22.4414 61.6241 20.5157 55.0376 20.8848 48.3764C21.2539 41.7152 23.8954 35.3818 28.3689 30.4324C32.8424 25.4831 38.8775 22.2169 45.4676 21.1787C52.0578 20.1404 58.8047 21.3928 64.5833 24.7269" stroke="#00A63E" stroke-width="2" stroke-linecap="round" stroke-linejoin="round"/>
<path d="M41.25 47.0832L50 55.8332L79.1667 26.6665" stroke="#00A63E" stroke-width="2" stroke-linecap="round" stroke-linejoin="round"/>
</svg>
