<svg width="100" height="100" viewBox="0 0 100 100" fill="none" xmlns="http://www.w3.org/2000/svg">
<path d="M0 10C0 4.47716 4.47715 0 10 0H90C95.5228 0 100 4.47715 100 10V90C100 95.5228 95.5229 100 90 100H10C4.47716 100 0 95.5229 0 90V10Z" fill="#DBEAFE"/>
<path d="M47.0833 78.3792C47.9701 78.8912 48.976 79.1607 50 79.1607C51.024 79.1607 52.0299 78.8912 52.9167 78.3792L73.3333 66.7125C74.2192 66.2011 74.9551 65.4656 75.467 64.58C75.9789 63.6943 76.249 62.6897 76.25 61.6667V38.3334C76.249 37.3104 75.9789 36.3057 75.467 35.4201C74.9551 34.5345 74.2192 33.799 73.3333 33.2875L52.9167 21.6209C52.0299 21.1089 51.024 20.8394 50 20.8394C48.976 20.8394 47.9701 21.1089 47.0833 21.6209L26.6667 33.2875C25.7808 33.799 25.0449 34.5345 24.533 35.4201C24.0211 36.3057 23.751 37.3104 23.75 38.3334V61.6667C23.751 62.6897 24.0211 63.6943 24.533 64.58C25.0449 65.4656 25.7808 66.2011 26.6667 66.7125L47.0833 78.3792Z" stroke="#155DFC" stroke-width="2" stroke-linecap="round" stroke-linejoin="round"/>
<path d="M50 79.1667V50" stroke="#155DFC" stroke-width="2" stroke-linecap="round" stroke-linejoin="round"/>
<path d="M24.5959 35.4166L50.0001 50L75.4043 35.4166" stroke="#155DFC" stroke-width="2" stroke-linecap="round" stroke-linejoin="round"/>
<path d="M36.875 27.4542L63.125 42.4751" stroke="#155DFC" stroke-width="2" stroke-linecap="round" stroke-linejoin="round"/>
</svg>
