<svg width="100" height="100" viewBox="0 0 100 100" fill="none" xmlns="http://www.w3.org/2000/svg">
<path d="M0 14C0 6.26801 6.26801 0 14 0H86C93.732 0 100 6.26801 100 14V86C100 93.732 93.732 100 86 100H14C6.26801 100 0 93.732 0 86V14Z" fill="#FEF9C2"/>
<path d="M26.6667 55.8333C26.1148 55.8352 25.5736 55.6804 25.1062 55.387C24.6387 55.0935 24.2641 54.6735 24.0258 54.1756C23.7876 53.6777 23.6955 53.1225 23.7603 52.5744C23.825 52.0262 24.044 51.5077 24.3917 51.0791L53.2667 21.3291C53.4833 21.0791 53.7785 20.9102 54.1038 20.85C54.429 20.7898 54.7651 20.8421 55.0568 20.9981C55.3485 21.1541 55.5784 21.4046 55.709 21.7086C55.8395 22.0125 55.8628 22.3518 55.7751 22.6708L50.1751 40.2291C50.0099 40.6711 49.9545 41.1465 50.0135 41.6146C50.0724 42.0826 50.2441 42.5294 50.5137 42.9166C50.7832 43.3038 51.1427 43.6198 51.5613 43.8375C51.9798 44.0552 52.4449 44.1681 52.9167 44.1666H73.3334C73.8853 44.1647 74.4265 44.3195 74.8939 44.6129C75.3614 44.9064 75.736 45.3264 75.9743 45.8243C76.2125 46.3222 76.3046 46.8774 76.2399 47.4255C76.1751 47.9737 75.9561 48.4922 75.6084 48.9208L46.7334 78.6708C46.5168 78.9208 46.2216 79.0897 45.8964 79.1499C45.5711 79.21 45.235 79.1578 44.9433 79.0018C44.6517 78.8458 44.4217 78.5952 44.2912 78.2913C44.1606 77.9873 44.1373 77.6481 44.2251 77.3291L49.8251 59.7708C49.9902 59.3288 50.0456 58.8534 49.9867 58.3853C49.9277 57.9173 49.7561 57.4705 49.4865 57.0833C49.2169 56.6961 48.8574 56.3801 48.4388 56.1624C48.0203 55.9447 47.5552 55.8317 47.0834 55.8333H26.6667Z" stroke="#D08700" stroke-width="2.66667" stroke-linecap="round" stroke-linejoin="round"/>
</svg>
