<svg width="177" height="45" viewBox="0 0 177 45" fill="none" xmlns="http://www.w3.org/2000/svg">
<path d="M0 10C0 4.47715 4.47715 0 10 0H35C40.5228 0 45 4.47715 45 10V35C45 40.5228 40.5228 45 35 45H10C4.47715 45 0 40.5228 0 35V10Z" fill="white"/>
<path d="M32.5 23.7501C32.5 30.0001 28.125 33.1251 22.925 34.9376C22.6527 35.0298 22.3569 35.0254 22.0875 34.9251C16.875 33.1251 12.5 30.0001 12.5 23.7501V15.0001C12.5 14.6686 12.6317 14.3506 12.8661 14.1162C13.1005 13.8818 13.4185 13.7501 13.75 13.7501C16.25 13.7501 19.375 12.2501 21.55 10.3501C21.8148 10.1238 22.1517 9.99951 22.5 9.99951C22.8483 9.99951 23.1852 10.1238 23.45 10.3501C25.6375 12.2626 28.75 13.7501 31.25 13.7501C31.5815 13.7501 31.8995 13.8818 32.1339 14.1162C32.3683 14.3506 32.5 14.6686 32.5 15.0001V23.7501Z" stroke="#155DFC" stroke-width="1.66667" stroke-linecap="round" stroke-linejoin="round"/>
<path d="M18.75 22.5L21.25 25L26.25 20" stroke="#155DFC" stroke-width="1.66667" stroke-linecap="round" stroke-linejoin="round"/>
<path d="M54.2642 27.5V12.9545H60.0028C61.1061 12.9545 62.0459 13.1652 62.8224 13.5866C63.599 14.0033 64.1908 14.5833 64.598 15.3267C65.0099 16.0653 65.2159 16.9176 65.2159 17.8835C65.2159 18.8494 65.0076 19.7017 64.5909 20.4403C64.1742 21.179 63.5705 21.7543 62.7798 22.1662C61.9938 22.5781 61.0421 22.7841 59.9247 22.7841H56.267V20.3196H59.4276C60.0194 20.3196 60.5071 20.2178 60.8906 20.0142C61.2789 19.8059 61.5677 19.5194 61.7571 19.1548C61.9512 18.7855 62.0483 18.3617 62.0483 17.8835C62.0483 17.4006 61.9512 16.9792 61.7571 16.6193C61.5677 16.2547 61.2789 15.973 60.8906 15.7741C60.5024 15.5705 60.0099 15.4688 59.4134 15.4688H57.3395V27.5H54.2642ZM70.1822 21.1932V27.5H67.1566V12.9545H70.0969V18.5156H70.2248C70.471 17.8717 70.8687 17.3674 71.418 17.0028C71.9672 16.6335 72.6561 16.4489 73.4847 16.4489C74.2423 16.4489 74.9028 16.6146 75.4663 16.946C76.0344 17.2727 76.4748 17.7438 76.7873 18.3594C77.1045 18.9702 77.2608 19.7017 77.256 20.554V27.5H74.2305V21.0938C74.2352 20.4214 74.0647 19.8982 73.7191 19.5241C73.3782 19.1501 72.9 18.9631 72.2844 18.9631C71.8725 18.9631 71.5079 19.0507 71.1907 19.2259C70.8782 19.401 70.632 19.6567 70.4521 19.9929C70.2769 20.3243 70.1869 20.7244 70.1822 21.1932ZM82.7479 27.706C82.0518 27.706 81.4316 27.5852 80.8871 27.3438C80.3426 27.0975 79.9117 26.7353 79.5945 26.2571C79.282 25.7741 79.1257 25.1728 79.1257 24.4531C79.1257 23.8471 79.237 23.3381 79.4595 22.9261C79.6821 22.5142 79.9851 22.1828 80.3686 21.9318C80.7521 21.6809 81.1877 21.4915 81.6754 21.3636C82.1679 21.2358 82.6839 21.1458 83.2237 21.0938C83.8582 21.0275 84.3696 20.9659 84.7578 20.9091C85.1461 20.8475 85.4278 20.7576 85.603 20.6392C85.7782 20.5208 85.8658 20.3456 85.8658 20.1136V20.071C85.8658 19.6212 85.7237 19.2732 85.4396 19.027C85.1603 18.7808 84.7625 18.6577 84.2464 18.6577C83.7019 18.6577 83.2687 18.7784 82.9467 19.0199C82.6248 19.2566 82.4117 19.5549 82.3075 19.9148L79.5092 19.6875C79.6513 19.0246 79.9306 18.4517 80.3473 17.9688C80.764 17.4811 81.3014 17.107 81.9595 16.8466C82.6224 16.5814 83.3894 16.4489 84.2607 16.4489C84.8667 16.4489 85.4467 16.5199 86.0007 16.6619C86.5594 16.804 87.0542 17.0241 87.4851 17.3224C87.9207 17.6207 88.264 18.0043 88.5149 18.473C88.7659 18.937 88.8913 19.4934 88.8913 20.142V27.5H86.022V25.9872H85.9368C85.7616 26.3281 85.5272 26.6288 85.2337 26.8892C84.9401 27.1449 84.5874 27.3461 84.1754 27.4929C83.7635 27.6349 83.2876 27.706 82.7479 27.706ZM83.6143 25.6179C84.0594 25.6179 84.4524 25.5303 84.7933 25.3551C85.1342 25.1752 85.4018 24.9337 85.5959 24.6307C85.79 24.3277 85.8871 23.9844 85.8871 23.6009V22.4432C85.7924 22.5047 85.6622 22.5616 85.4964 22.6136C85.3355 22.661 85.1532 22.706 84.9496 22.7486C84.746 22.7865 84.5424 22.822 84.3388 22.8551C84.1352 22.8835 83.9505 22.9096 83.7848 22.9332C83.4297 22.9853 83.1196 23.0682 82.8544 23.1818C82.5893 23.2955 82.3833 23.4493 82.2365 23.6435C82.0897 23.8329 82.0163 24.0696 82.0163 24.3537C82.0163 24.7656 82.1655 25.0805 82.4638 25.2983C82.7668 25.5114 83.1503 25.6179 83.6143 25.6179ZM91.2386 27.5V16.5909H94.1719V18.4943H94.2855C94.4844 17.8172 94.8182 17.3059 95.2869 16.9602C95.7557 16.6098 96.2955 16.4347 96.9062 16.4347C97.0578 16.4347 97.2211 16.4441 97.3963 16.4631C97.5715 16.482 97.7254 16.508 97.858 16.5412V19.2259C97.7159 19.1832 97.5194 19.1454 97.2685 19.1122C97.0175 19.0791 96.7879 19.0625 96.5795 19.0625C96.1345 19.0625 95.7367 19.1596 95.3864 19.3537C95.0407 19.5431 94.7661 19.8082 94.5625 20.1491C94.3636 20.4901 94.2642 20.883 94.2642 21.3281V27.5H91.2386ZM99.4222 27.5V16.5909H102.306V18.5156H102.434C102.661 17.8764 103.04 17.3722 103.57 17.0028C104.1 16.6335 104.735 16.4489 105.473 16.4489C106.221 16.4489 106.858 16.6359 107.384 17.0099C107.909 17.3793 108.26 17.8812 108.435 18.5156H108.549C108.771 17.8906 109.174 17.3911 109.756 17.017C110.343 16.6383 111.037 16.4489 111.837 16.4489C112.855 16.4489 113.681 16.7732 114.316 17.4219C114.955 18.0658 115.275 18.9796 115.275 20.1634V27.5H112.256V20.7599C112.256 20.1539 112.095 19.6993 111.773 19.3963C111.451 19.0933 111.049 18.9418 110.566 18.9418C110.016 18.9418 109.588 19.117 109.28 19.4673C108.972 19.813 108.819 20.2699 108.819 20.8381V27.5H105.885V20.696C105.885 20.161 105.731 19.7348 105.424 19.4176C105.121 19.1004 104.721 18.9418 104.223 18.9418C103.887 18.9418 103.584 19.027 103.314 19.1974C103.049 19.3632 102.838 19.5975 102.682 19.9006C102.526 20.1989 102.448 20.5492 102.448 20.9517V27.5H99.4222ZM127.366 17.6562C127.267 17.3106 127.127 17.0052 126.947 16.7401C126.767 16.4702 126.547 16.2429 126.287 16.0582C126.031 15.8688 125.737 15.7244 125.406 15.625C125.079 15.5256 124.717 15.4759 124.319 15.4759C123.576 15.4759 122.922 15.6605 122.359 16.0298C121.8 16.3991 121.365 16.9366 121.052 17.642C120.74 18.3428 120.583 19.1998 120.583 20.2131C120.583 21.2263 120.737 22.0881 121.045 22.7983C121.353 23.5085 121.788 24.0507 122.352 24.4247C122.915 24.794 123.581 24.9787 124.348 24.9787C125.044 24.9787 125.638 24.8556 126.13 24.6094C126.627 24.3584 127.006 24.0057 127.267 23.5511C127.532 23.0966 127.664 22.5592 127.664 21.9389L128.289 22.0312H124.539V19.7159H130.626V21.5483C130.626 22.8267 130.356 23.9252 129.816 24.8438C129.277 25.7576 128.533 26.4631 127.586 26.9602C126.639 27.4527 125.555 27.6989 124.333 27.6989C122.97 27.6989 121.772 27.3982 120.74 26.7969C119.708 26.1908 118.903 25.3314 118.325 24.2188C117.752 23.1013 117.466 21.7756 117.466 20.2415C117.466 19.0625 117.636 18.0114 117.977 17.0881C118.323 16.16 118.806 15.3741 119.426 14.7301C120.046 14.0862 120.768 13.5961 121.592 13.2599C122.416 12.9238 123.308 12.7557 124.27 12.7557C125.093 12.7557 125.86 12.8764 126.571 13.1179C127.281 13.3546 127.911 13.6908 128.46 14.1264C129.014 14.562 129.466 15.0805 129.816 15.6818C130.167 16.2784 130.392 16.9366 130.491 17.6562H127.366ZM139.875 22.8551V16.5909H142.901V27.5H139.996V25.5185H139.882C139.636 26.1577 139.226 26.6714 138.653 27.0597C138.085 27.4479 137.392 27.642 136.572 27.642C135.843 27.642 135.202 27.4763 134.648 27.1449C134.094 26.8134 133.661 26.3423 133.348 25.7315C133.04 25.1207 132.884 24.3892 132.879 23.5369V16.5909H135.905V22.9972C135.91 23.6411 136.082 24.1501 136.423 24.5241C136.764 24.8982 137.221 25.0852 137.794 25.0852C138.159 25.0852 138.5 25.0024 138.817 24.8366C139.134 24.6662 139.39 24.4152 139.584 24.0838C139.783 23.7524 139.88 23.3428 139.875 22.8551ZM148.431 27.706C147.735 27.706 147.115 27.5852 146.571 27.3438C146.026 27.0975 145.595 26.7353 145.278 26.2571C144.966 25.7741 144.809 25.1728 144.809 24.4531C144.809 23.8471 144.921 23.3381 145.143 22.9261C145.366 22.5142 145.669 22.1828 146.052 21.9318C146.436 21.6809 146.871 21.4915 147.359 21.3636C147.851 21.2358 148.368 21.1458 148.907 21.0938C149.542 21.0275 150.053 20.9659 150.441 20.9091C150.83 20.8475 151.111 20.7576 151.287 20.6392C151.462 20.5208 151.549 20.3456 151.549 20.1136V20.071C151.549 19.6212 151.407 19.2732 151.123 19.027C150.844 18.7808 150.446 18.6577 149.93 18.6577C149.386 18.6577 148.952 18.7784 148.63 19.0199C148.308 19.2566 148.095 19.5549 147.991 19.9148L145.193 19.6875C145.335 19.0246 145.614 18.4517 146.031 17.9688C146.448 17.4811 146.985 17.107 147.643 16.8466C148.306 16.5814 149.073 16.4489 149.944 16.4489C150.55 16.4489 151.13 16.5199 151.684 16.6619C152.243 16.804 152.738 17.0241 153.169 17.3224C153.604 17.6207 153.948 18.0043 154.199 18.473C154.449 18.937 154.575 19.4934 154.575 20.142V27.5H151.706V25.9872H151.62C151.445 26.3281 151.211 26.6288 150.917 26.8892C150.624 27.1449 150.271 27.3461 149.859 27.4929C149.447 27.6349 148.971 27.706 148.431 27.706ZM149.298 25.6179C149.743 25.6179 150.136 25.5303 150.477 25.3551C150.818 25.1752 151.085 24.9337 151.279 24.6307C151.474 24.3277 151.571 23.9844 151.571 23.6009V22.4432C151.476 22.5047 151.346 22.5616 151.18 22.6136C151.019 22.661 150.837 22.706 150.633 22.7486C150.43 22.7865 150.226 22.822 150.022 22.8551C149.819 22.8835 149.634 22.9096 149.468 22.9332C149.113 22.9853 148.803 23.0682 148.538 23.1818C148.273 23.2955 148.067 23.4493 147.92 23.6435C147.773 23.8329 147.7 24.0696 147.7 24.3537C147.7 24.7656 147.849 25.0805 148.147 25.2983C148.45 25.5114 148.834 25.6179 149.298 25.6179ZM156.922 27.5V16.5909H159.855V18.4943H159.969C160.168 17.8172 160.502 17.3059 160.971 16.9602C161.439 16.6098 161.979 16.4347 162.59 16.4347C162.741 16.4347 162.905 16.4441 163.08 16.4631C163.255 16.482 163.409 16.508 163.542 16.5412V19.2259C163.4 19.1832 163.203 19.1454 162.952 19.1122C162.701 19.0791 162.471 19.0625 162.263 19.0625C161.818 19.0625 161.42 19.1596 161.07 19.3537C160.724 19.5431 160.45 19.8082 160.246 20.1491C160.047 20.4901 159.948 20.883 159.948 21.3281V27.5H156.922ZM168.618 27.6776C167.789 27.6776 167.039 27.4645 166.366 27.0384C165.699 26.6075 165.169 25.9754 164.776 25.142C164.387 24.304 164.193 23.2765 164.193 22.0597C164.193 20.8097 164.394 19.7704 164.797 18.9418C165.199 18.1084 165.734 17.4858 166.402 17.0739C167.074 16.6572 167.811 16.4489 168.611 16.4489C169.222 16.4489 169.731 16.553 170.138 16.7614C170.55 16.965 170.881 17.2206 171.132 17.5284C171.388 17.8314 171.582 18.1297 171.714 18.4233H171.807V12.9545H174.825V27.5H171.842V25.7528H171.714C171.572 26.0559 171.371 26.3565 171.111 26.6548C170.855 26.9484 170.521 27.1922 170.109 27.3864C169.702 27.5805 169.205 27.6776 168.618 27.6776ZM169.577 25.2699C170.064 25.2699 170.476 25.1373 170.812 24.8722C171.153 24.6023 171.414 24.2259 171.594 23.7429C171.778 23.2599 171.871 22.6941 171.871 22.0455C171.871 21.3968 171.781 20.8333 171.601 20.3551C171.421 19.8769 171.161 19.5076 170.82 19.2472C170.479 18.9867 170.064 18.8565 169.577 18.8565C169.08 18.8565 168.661 18.9915 168.32 19.2614C167.979 19.5312 167.721 19.9053 167.545 20.3835C167.37 20.8617 167.283 21.4157 167.283 22.0455C167.283 22.6799 167.37 23.241 167.545 23.7287C167.725 24.2116 167.983 24.5904 168.32 24.8651C168.661 25.1349 169.08 25.2699 169.577 25.2699Z" fill="white"/>
</svg>
