<svg width="595" height="739" viewBox="0 0 595 739" fill="none" xmlns="http://www.w3.org/2000/svg">
<g opacity="0.1">
<path d="M24.8778 141.323C22.9385 132.701 28.3703 124.209 37.01 122.354L452.016 33.2552C460.656 31.4003 469.232 36.8854 471.171 45.5066L537.837 341.877C539.777 350.498 534.345 358.991 525.705 360.846L110.699 449.945C102.059 451.799 93.4832 446.314 91.5439 437.693L24.8778 141.323Z" fill="url(#paint0_linear_2022_22)"/>
</g>
<g opacity="0.1">
<path d="M25.7851 371.263C23.6085 362.698 28.8038 354.059 37.389 351.966L449.777 251.444C458.363 249.351 467.087 254.598 469.263 263.162L544.086 557.579C546.262 566.143 541.067 574.783 532.482 576.875L120.094 677.398C111.508 679.49 102.784 674.244 100.608 665.68L25.7851 371.263Z" fill="url(#paint1_linear_2022_22)"/>
</g>
<g filter="url(#filter0_d_2022_22)">
<mask id="path-3-inside-1_2022_22" fill="white">
<path d="M38.3923 125.463C36.4561 116.841 41.8758 108.281 50.4974 106.344L464.183 13.3926C472.805 11.4555 481.364 16.8744 483.3 25.4963L550.075 322.853C552.011 331.474 546.591 340.034 537.97 341.971L124.284 434.923C115.662 436.86 107.103 431.441 105.167 422.819L38.3923 125.463Z"/>
</mask>
<path d="M38.3923 125.463C36.4561 116.841 41.8758 108.281 50.4974 106.344L464.183 13.3926C472.805 11.4555 481.364 16.8744 483.3 25.4963L550.075 322.853C552.011 331.474 546.591 340.034 537.97 341.971L124.284 434.923C115.662 436.86 107.103 431.441 105.167 422.819L38.3923 125.463Z" fill="white" shape-rendering="crispEdges"/>
<path d="M50.4974 106.344L50.7165 107.32L464.402 14.3683L464.183 13.3926L463.964 12.4169L50.2783 105.368L50.4974 106.344ZM483.3 25.4963L482.324 25.7155L549.099 323.072L550.075 322.853L551.05 322.633L484.276 25.2771L483.3 25.4963ZM537.97 341.971L537.75 340.996L124.065 433.947L124.284 434.923L124.503 435.898L538.189 342.947L537.97 341.971ZM105.167 422.819L106.143 422.6L39.368 125.243L38.3923 125.463L37.4166 125.682L104.191 423.038L105.167 422.819ZM124.284 434.923L124.065 433.947C115.982 435.763 107.958 430.683 106.143 422.6L105.167 422.819L104.191 423.038C106.249 432.199 115.342 437.957 124.503 435.898L124.284 434.923ZM550.075 322.853L549.099 323.072C550.914 331.155 545.833 339.18 537.75 340.996L537.97 341.971L538.189 342.947C547.349 340.889 553.108 331.794 551.05 322.633L550.075 322.853ZM464.183 13.3926L464.402 14.3683C472.485 12.5522 480.509 17.6325 482.324 25.7155L483.3 25.4963L484.276 25.2771C482.218 16.1163 473.125 10.3587 463.964 12.4169L464.183 13.3926ZM50.4974 106.344L50.2783 105.368C41.1178 107.426 35.3595 116.521 37.4166 125.682L38.3923 125.463L39.368 125.243C37.5528 117.16 42.6337 109.136 50.7165 107.32L50.4974 106.344Z" fill="#E5E7EB" mask="url(#path-3-inside-1_2022_22)"/>
<path d="M66.509 136.569C65.7829 133.336 67.8153 130.126 71.0484 129.399C74.2815 128.673 77.491 130.705 78.2171 133.938C78.9431 137.171 76.9107 140.381 73.6776 141.108C70.4445 141.834 67.235 139.802 66.509 136.569Z" fill="#FF6467"/>
<path d="M86.0224 132.184C85.2963 128.951 87.3287 125.741 90.5618 125.015C93.7949 124.288 97.0044 126.321 97.7305 129.554C98.4565 132.787 96.4242 135.997 93.1911 136.723C89.958 137.45 86.7484 135.418 86.0224 132.184Z" fill="#FDC700"/>
<path d="M105.536 127.8C104.81 124.567 106.842 121.357 110.075 120.63C113.308 119.904 116.518 121.936 117.244 125.169C117.97 128.403 115.938 131.612 112.705 132.339C109.472 133.065 106.262 131.033 105.536 127.8Z" fill="#05DF72"/>
<path d="M125.847 124.507L126.873 124.181C127.016 124.589 127.208 124.908 127.448 125.139C127.691 125.364 128.022 125.518 128.441 125.6C128.859 125.679 129.306 125.664 129.782 125.557C130.205 125.462 130.565 125.315 130.86 125.117C131.156 124.918 131.358 124.693 131.465 124.44C131.575 124.183 131.602 123.925 131.543 123.666C131.484 123.403 131.357 123.191 131.161 123.031C130.964 122.867 130.675 122.758 130.294 122.703C130.05 122.666 129.522 122.643 128.711 122.633C127.899 122.619 127.321 122.565 126.975 122.47C126.528 122.351 126.17 122.159 125.903 121.895C125.638 121.626 125.463 121.299 125.376 120.914C125.281 120.491 125.313 120.069 125.471 119.65C125.628 119.226 125.916 118.867 126.334 118.573C126.752 118.279 127.244 118.068 127.808 117.941C128.429 117.802 128.999 117.78 129.516 117.876C130.037 117.967 130.469 118.178 130.812 118.51C131.154 118.841 131.391 119.25 131.52 119.738L130.475 120.057C130.299 119.54 130.014 119.183 129.622 118.987C129.233 118.79 128.717 118.764 128.073 118.909C127.402 119.059 126.94 119.293 126.687 119.61C126.437 119.923 126.351 120.252 126.429 120.599C126.496 120.9 126.661 121.124 126.922 121.269C127.179 121.416 127.78 121.491 128.726 121.495C129.674 121.494 130.333 121.532 130.703 121.609C131.241 121.724 131.666 121.929 131.976 122.224C132.286 122.514 132.491 122.885 132.592 123.334C132.692 123.78 132.659 124.23 132.493 124.684C132.325 125.134 132.027 125.523 131.596 125.852C131.168 126.176 130.655 126.406 130.057 126.54C129.299 126.711 128.637 126.743 128.073 126.638C127.513 126.531 127.036 126.29 126.643 125.914C126.254 125.533 125.988 125.064 125.847 124.507ZM136.547 123.965L136.9 124.841C136.624 124.967 136.371 125.055 136.143 125.107C135.769 125.191 135.466 125.197 135.234 125.125C135.002 125.053 134.822 124.931 134.695 124.759C134.568 124.584 134.435 124.187 134.296 123.57L133.512 120.077L132.757 120.246L132.577 119.446L133.332 119.276L132.994 117.773L133.879 116.925L134.355 119.047L135.39 118.814L135.57 119.614L134.535 119.847L135.332 123.397C135.398 123.691 135.458 123.875 135.511 123.952C135.568 124.027 135.642 124.08 135.733 124.112C135.828 124.143 135.952 124.141 136.104 124.107C136.219 124.081 136.366 124.034 136.547 123.965ZM136.701 121.708C136.448 120.584 136.574 119.681 137.077 118.999C137.498 118.432 138.084 118.065 138.835 117.896C139.67 117.708 140.414 117.829 141.067 118.259C141.719 118.685 142.153 119.38 142.37 120.345C142.545 121.126 142.565 121.768 142.43 122.271C142.298 122.769 142.034 123.192 141.64 123.541C141.25 123.889 140.79 124.123 140.26 124.242C139.41 124.433 138.661 124.315 138.013 123.888C137.368 123.46 136.931 122.734 136.701 121.708ZM137.758 121.471C137.933 122.248 138.234 122.793 138.66 123.106C139.086 123.415 139.556 123.511 140.07 123.396C140.581 123.281 140.962 122.991 141.214 122.526C141.466 122.061 141.503 121.43 141.324 120.634C141.155 119.883 140.856 119.353 140.427 119.046C140 118.733 139.533 118.634 139.026 118.748C138.512 118.863 138.128 119.152 137.876 119.613C137.623 120.074 137.584 120.693 137.758 121.471ZM147.745 120.08L148.786 119.984C148.833 120.706 148.671 121.317 148.303 121.816C147.938 122.31 147.423 122.632 146.76 122.781C145.929 122.968 145.2 122.848 144.571 122.42C143.946 121.988 143.519 121.265 143.292 120.252C143.144 119.596 143.124 118.998 143.231 118.458C143.338 117.917 143.585 117.475 143.972 117.132C144.363 116.784 144.819 116.551 145.341 116.434C146 116.286 146.577 116.332 147.072 116.574C147.566 116.811 147.94 117.223 148.196 117.81L147.23 118.189C147.044 117.803 146.805 117.534 146.515 117.383C146.229 117.231 145.914 117.194 145.571 117.271C145.053 117.388 144.673 117.669 144.433 118.115C144.192 118.558 144.162 119.181 144.343 119.985C144.526 120.801 144.815 121.358 145.211 121.658C145.606 121.957 146.056 122.051 146.559 121.938C146.963 121.847 147.272 121.647 147.487 121.339C147.702 121.03 147.788 120.61 147.745 120.08ZM150.142 121.877L148.26 113.496L149.289 113.265L150.363 118.044L152.243 115.027L153.575 114.728L151.76 117.502L155.173 120.747L153.904 121.032L151.2 118.378L150.631 119.239L151.171 121.646L150.142 121.877ZM159.335 119.812L157.453 111.43L158.562 111.181L160.222 118.573L164.35 117.646L164.572 118.635L159.335 119.812ZM169.484 115.477L170.577 115.37C170.548 116.029 170.346 116.581 169.969 117.026C169.593 117.471 169.052 117.772 168.347 117.931C167.459 118.13 166.693 118.016 166.048 117.589C165.407 117.156 164.975 116.446 164.753 115.459C164.524 114.438 164.609 113.586 165.008 112.904C165.408 112.222 166.026 111.786 166.865 111.598C167.677 111.415 168.402 111.543 169.04 111.98C169.679 112.417 170.111 113.137 170.336 114.139C170.35 114.2 170.368 114.292 170.392 114.415L165.864 115.432C166.052 116.09 166.355 116.559 166.774 116.837C167.193 117.115 167.656 117.197 168.163 117.083C168.54 116.999 168.84 116.827 169.062 116.569C169.284 116.311 169.425 115.947 169.484 115.477ZM165.731 114.573L169.121 113.811C168.961 113.311 168.745 112.957 168.475 112.749C168.058 112.427 167.588 112.324 167.066 112.441C166.594 112.548 166.231 112.795 165.978 113.184C165.729 113.573 165.647 114.035 165.731 114.573ZM173.97 116.523L170.297 110.971L171.383 110.727L173.503 114.07C173.733 114.431 173.954 114.809 174.167 115.206C174.186 114.865 174.228 114.452 174.291 113.965L174.808 109.957L175.865 109.72L174.931 116.307L173.97 116.523ZM181.855 112.698L182.948 112.59C182.92 113.249 182.717 113.801 182.341 114.246C181.964 114.691 181.423 114.993 180.718 115.151C179.83 115.351 179.064 115.237 178.42 114.809C177.778 114.377 177.346 113.667 177.125 112.68C176.895 111.658 176.98 110.806 177.38 110.124C177.779 109.442 178.398 109.007 179.236 108.818C180.048 108.636 180.773 108.763 181.412 109.2C182.05 109.637 182.482 110.357 182.707 111.359C182.721 111.42 182.74 111.512 182.763 111.635L178.235 112.652C178.423 113.311 178.727 113.779 179.146 114.057C179.564 114.335 180.027 114.418 180.534 114.304C180.911 114.219 181.211 114.048 181.433 113.789C181.656 113.531 181.796 113.167 181.855 112.698ZM178.103 111.793L181.493 111.032C181.332 110.531 181.117 110.177 180.846 109.97C180.429 109.647 179.96 109.544 179.438 109.662C178.965 109.768 178.602 110.016 178.349 110.405C178.1 110.793 178.018 111.256 178.103 111.793ZM184.632 114.128L182.75 105.746L183.779 105.515L185.661 113.896L184.632 114.128ZM186.443 111.817L187.425 111.428C187.574 111.823 187.802 112.1 188.11 112.259C188.422 112.417 188.812 112.444 189.281 112.338C189.753 112.232 190.083 112.058 190.269 111.816C190.454 111.57 190.517 111.318 190.459 111.059C190.407 110.826 190.264 110.666 190.033 110.578C189.871 110.518 189.494 110.481 188.902 110.466C188.105 110.445 187.544 110.399 187.22 110.327C186.898 110.251 186.634 110.109 186.427 109.899C186.223 109.685 186.087 109.429 186.02 109.131C185.96 108.861 185.965 108.597 186.035 108.341C186.109 108.081 186.235 107.85 186.414 107.65C186.548 107.496 186.743 107.348 186.999 107.206C187.259 107.06 187.547 106.951 187.863 106.88C188.339 106.773 188.772 106.748 189.161 106.804C189.554 106.86 189.863 106.987 190.087 107.185C190.311 107.379 190.499 107.665 190.652 108.043L189.677 108.406C189.561 108.104 189.373 107.89 189.112 107.764C188.856 107.638 188.527 107.619 188.127 107.709C187.655 107.815 187.335 107.969 187.168 108.171C187.001 108.373 186.941 108.578 186.988 108.788C187.018 108.921 187.087 109.032 187.195 109.12C187.303 109.211 187.456 109.273 187.651 109.306C187.762 109.321 188.085 109.34 188.619 109.364C189.391 109.395 189.933 109.441 190.247 109.503C190.565 109.56 190.832 109.688 191.048 109.887C191.265 110.087 191.413 110.362 191.492 110.713C191.569 111.056 191.541 111.402 191.407 111.753C191.277 112.098 191.042 112.397 190.702 112.65C190.361 112.898 189.953 113.076 189.477 113.183C188.688 113.361 188.049 113.332 187.56 113.098C187.074 112.862 186.702 112.435 186.443 111.817Z" fill="#6A7282"/>
<path d="M73.9585 169.743C72.7484 164.354 76.1357 159.004 81.5242 157.794L458.135 73.1729C463.523 71.9621 468.872 75.349 470.082 80.7376L500.757 217.336C501.967 222.724 498.58 228.074 493.191 229.285L116.581 313.906C111.193 315.116 105.843 311.73 104.633 306.341L73.9585 169.743Z" fill="url(#paint2_linear_2022_22)"/>
<path d="M102.979 225.951C102.495 223.796 103.85 221.656 106.005 221.171L159.015 209.261C161.17 208.777 163.31 210.131 163.794 212.287L179.744 283.315L118.929 296.979L102.979 225.951Z" fill="#155DFC"/>
<path d="M158.184 187.307C157.7 185.152 159.055 183.012 161.211 182.528L214.22 170.617C216.375 170.133 218.515 171.487 218.999 173.643L240.558 269.65L179.744 283.315L158.184 187.307Z" fill="#2B7FFF"/>
<path d="M227.412 211.108C226.928 208.953 228.283 206.813 230.438 206.329L283.447 194.418C285.603 193.934 287.743 195.288 288.227 197.444L301.373 255.986L240.558 269.65L227.412 211.108Z" fill="#155DFC"/>
<path d="M277.009 147.493C276.525 145.337 277.88 143.197 280.036 142.713L333.045 130.802C335.2 130.318 337.34 131.673 337.824 133.828L362.187 242.322L301.373 255.986L277.009 147.493Z" fill="#2B7FFF"/>
<path d="M343.433 158.808C342.949 156.652 344.304 154.512 346.46 154.028L399.469 142.117C401.624 141.633 403.764 142.988 404.248 145.143L423.002 228.657L362.187 242.321L343.433 158.808Z" fill="#155DFC"/>
<path d="M400.04 126.407C399.556 124.251 400.911 122.111 403.067 121.627L456.076 109.716C458.231 109.232 460.371 110.587 460.855 112.742L483.816 214.993L423.002 228.657L400.04 126.407Z" fill="#2B7FFF"/>
<path d="M112.521 341.466C111.311 336.078 114.698 330.728 120.087 329.517L221.877 306.646C227.265 305.435 232.615 308.822 233.825 314.21L245.218 364.947C246.428 370.336 243.041 375.685 237.653 376.896L135.862 399.767C130.474 400.978 125.125 397.591 123.914 392.203L112.521 341.466Z" fill="#F9FAFB"/>
<path d="M128.389 352.25L126.506 343.869L127.616 343.62L129.498 352.001L128.389 352.25ZM131.327 351.59L129.964 345.518L130.89 345.31L131.084 346.173C131.38 345.406 131.949 344.928 132.791 344.739C133.157 344.657 133.507 344.648 133.842 344.713C134.18 344.773 134.449 344.893 134.65 345.072C134.85 345.251 135.014 345.481 135.14 345.76C135.221 345.942 135.315 346.272 135.422 346.748L136.261 350.481L135.232 350.712L134.402 347.019C134.308 346.6 134.198 346.296 134.072 346.109C133.945 345.917 133.764 345.783 133.531 345.708C133.301 345.627 133.049 345.618 132.774 345.679C132.336 345.778 131.988 346.002 131.73 346.352C131.476 346.702 131.437 347.265 131.611 348.043L132.356 351.359L131.327 351.59ZM140.252 346.756L141.278 346.429C141.422 346.837 141.613 347.157 141.853 347.387C142.096 347.613 142.427 347.766 142.846 347.849C143.264 347.927 143.711 347.912 144.187 347.805C144.61 347.71 144.97 347.564 145.265 347.365C145.561 347.166 145.763 346.941 145.87 346.689C145.981 346.432 146.007 346.173 145.949 345.914C145.889 345.651 145.762 345.44 145.566 345.28C145.369 345.116 145.08 345.006 144.699 344.952C144.455 344.915 143.927 344.891 143.116 344.881C142.304 344.867 141.726 344.813 141.38 344.719C140.933 344.599 140.576 344.407 140.308 344.143C140.044 343.874 139.868 343.547 139.782 343.162C139.687 342.739 139.718 342.318 139.876 341.898C140.033 341.474 140.321 341.115 140.739 340.821C141.158 340.527 141.649 340.316 142.213 340.19C142.834 340.05 143.404 340.028 143.922 340.124C144.443 340.215 144.874 340.426 145.217 340.758C145.56 341.089 145.796 341.499 145.925 341.986L144.88 342.305C144.704 341.788 144.419 341.431 144.027 341.235C143.639 341.038 143.122 341.012 142.478 341.157C141.807 341.308 141.345 341.542 141.092 341.859C140.842 342.171 140.756 342.501 140.834 342.848C140.902 343.149 141.066 343.372 141.327 343.518C141.584 343.664 142.185 343.739 143.131 343.743C144.079 343.742 144.739 343.78 145.108 343.857C145.647 343.972 146.071 344.177 146.381 344.472C146.691 344.763 146.896 345.133 146.997 345.583C147.097 346.029 147.064 346.478 146.898 346.932C146.731 347.382 146.432 347.772 146.001 348.1C145.573 348.425 145.06 348.654 144.462 348.789C143.704 348.959 143.042 348.991 142.478 348.886C141.918 348.78 141.441 348.538 141.049 348.162C140.659 347.781 140.393 347.313 140.252 346.756ZM150.952 346.213L151.305 347.089C151.029 347.215 150.777 347.304 150.548 347.355C150.174 347.439 149.871 347.445 149.639 347.373C149.407 347.301 149.227 347.179 149.101 347.008C148.973 346.832 148.84 346.436 148.701 345.818L147.917 342.325L147.162 342.495L146.983 341.694L147.737 341.525L147.4 340.021L148.284 339.174L148.761 341.295L149.795 341.062L149.975 341.863L148.94 342.095L149.738 345.645C149.803 345.939 149.863 346.124 149.916 346.2C149.973 346.275 150.047 346.329 150.138 346.36C150.233 346.391 150.357 346.389 150.509 346.355C150.624 346.329 150.771 346.282 150.952 346.213ZM151.106 343.957C150.853 342.832 150.979 341.929 151.482 341.248C151.904 340.681 152.49 340.313 153.24 340.144C154.075 339.957 154.819 340.078 155.472 340.508C156.124 340.933 156.558 341.629 156.775 342.593C156.95 343.374 156.97 344.016 156.835 344.519C156.703 345.017 156.44 345.441 156.045 345.79C155.655 346.137 155.195 346.371 154.665 346.49C153.815 346.681 153.066 346.563 152.418 346.136C151.773 345.708 151.336 344.982 151.106 343.957ZM152.163 343.719C152.338 344.497 152.639 345.042 153.065 345.354C153.491 345.663 153.961 345.759 154.475 345.644C154.986 345.529 155.367 345.239 155.619 344.774C155.871 344.309 155.908 343.679 155.729 342.882C155.56 342.131 155.261 341.602 154.832 341.294C154.405 340.981 153.939 340.882 153.432 340.996C152.917 341.112 152.533 341.4 152.281 341.861C152.028 342.322 151.989 342.942 152.163 343.719ZM162.15 342.328L163.192 342.232C163.238 342.954 163.077 343.565 162.708 344.064C162.343 344.559 161.829 344.88 161.165 345.029C160.335 345.216 159.605 345.096 158.977 344.669C158.351 344.237 157.924 343.514 157.697 342.5C157.55 341.844 157.529 341.246 157.636 340.706C157.743 340.165 157.99 339.723 158.377 339.38C158.768 339.032 159.224 338.8 159.746 338.682C160.405 338.534 160.982 338.581 161.477 338.822C161.971 339.059 162.345 339.472 162.601 340.059L161.636 340.438C161.449 340.051 161.21 339.783 160.92 339.632C160.634 339.48 160.319 339.442 159.976 339.519C159.458 339.636 159.079 339.917 158.839 340.364C158.598 340.806 158.567 341.429 158.748 342.234C158.931 343.049 159.221 343.607 159.616 343.906C160.012 344.206 160.461 344.299 160.964 344.186C161.368 344.095 161.677 343.896 161.892 343.587C162.107 343.278 162.193 342.859 162.15 342.328ZM164.548 344.125L162.665 335.744L163.695 335.513L164.768 340.292L166.649 337.276L167.981 336.976L166.165 339.75L169.578 342.995L168.309 343.28L165.606 340.627L165.036 341.487L165.577 343.894L164.548 344.125Z" fill="#4A5565"/>
<path d="M141.594 374.605L142.096 376.843L133.65 378.741C133.551 377.874 133.646 377.012 133.934 376.155C134.22 375.292 134.898 374.083 135.966 372.527C136.825 371.271 137.337 370.436 137.502 370.02C137.721 369.449 137.777 368.92 137.668 368.434C137.547 367.896 137.309 367.517 136.953 367.297C136.602 367.07 136.172 367.013 135.663 367.128C135.16 367.241 134.794 367.482 134.564 367.852C134.335 368.222 134.277 368.763 134.389 369.477L131.934 369.776C131.779 368.418 132.014 367.365 132.639 366.618C133.264 365.871 134.142 365.37 135.274 365.116C136.515 364.837 137.565 364.953 138.424 365.462C139.283 365.972 139.824 366.724 140.047 367.719C140.175 368.285 140.193 368.848 140.103 369.409C140.017 369.963 139.817 370.569 139.502 371.228C139.294 371.665 138.888 372.318 138.285 373.187C137.681 374.055 137.302 374.626 137.147 374.901C136.999 375.175 136.886 375.435 136.809 375.68L141.594 374.605ZM148.459 375.413L147.891 372.884L142.746 374.04L142.272 371.93L145.933 362.721L147.957 362.266L149.748 370.241L151.309 369.891L151.784 372.009L150.224 372.36L150.792 374.889L148.459 375.413ZM147.416 370.766L146.451 366.469L144.526 371.415L147.416 370.766ZM151.228 364.117L150.725 361.878L158.966 360.027L159.359 361.776C158.829 362.598 158.353 363.714 157.931 365.124C157.509 366.534 157.271 367.987 157.216 369.482C157.166 370.971 157.269 372.269 157.523 373.377L155.199 373.899C154.849 372.152 154.808 370.3 155.077 368.341C155.352 366.382 155.895 364.563 156.708 362.885L151.228 364.117Z" fill="#101828"/>
<path d="M245.533 311.58C244.323 306.191 247.71 300.841 253.099 299.631L354.896 276.758C360.285 275.547 365.634 278.934 366.844 284.322L378.238 335.059C379.448 340.447 376.061 345.797 370.672 347.008L268.874 369.881C263.486 371.092 258.136 367.705 256.926 362.316L245.533 311.58Z" fill="#FEFCE8"/>
<path d="M261.166 322.416L259.284 314.035L260.393 313.786L262.053 321.178L266.181 320.251L266.403 321.24L261.166 322.416ZM266.533 318.021C266.28 316.897 266.406 315.994 266.909 315.312C267.33 314.745 267.916 314.378 268.667 314.209C269.502 314.021 270.246 314.142 270.899 314.572C271.551 314.998 271.985 315.693 272.202 316.658C272.377 317.439 272.397 318.081 272.262 318.584C272.13 319.082 271.866 319.505 271.472 319.854C271.082 320.202 270.622 320.436 270.092 320.555C269.242 320.746 268.493 320.628 267.845 320.201C267.2 319.773 266.763 319.047 266.533 318.021ZM267.59 317.784C267.765 318.561 268.065 319.106 268.492 319.419C268.918 319.728 269.388 319.824 269.902 319.709C270.413 319.594 270.794 319.304 271.046 318.839C271.298 318.374 271.335 317.743 271.156 316.947C270.987 316.196 270.688 315.666 270.259 315.359C269.832 315.046 269.365 314.947 268.858 315.061C268.344 315.176 267.96 315.465 267.708 315.926C267.455 316.387 267.416 317.006 267.59 317.784ZM275.235 319.255L272.014 313.601L273.077 313.362L274.83 316.65L275.483 317.872C275.484 317.804 275.495 317.363 275.516 316.549L275.684 312.776L276.742 312.539L278.441 315.856L279.005 316.949L279.091 315.698L279.343 311.954L280.343 311.729L279.809 318.227L278.74 318.468L276.957 315.049L276.49 314.067L276.31 319.013L275.235 319.255ZM284.984 314.236L286.009 313.909C286.153 314.318 286.345 314.637 286.585 314.867C286.828 315.093 287.158 315.247 287.577 315.329C287.995 315.407 288.442 315.393 288.919 315.286C289.342 315.191 289.701 315.044 289.997 314.845C290.292 314.647 290.494 314.421 290.602 314.169C290.712 313.912 290.738 313.654 290.68 313.395C290.621 313.132 290.493 312.92 290.297 312.76C290.1 312.596 289.811 312.487 289.431 312.432C289.186 312.395 288.659 312.371 287.848 312.361C287.036 312.348 286.457 312.293 286.112 312.199C285.664 312.079 285.307 311.887 285.039 311.623C284.775 311.354 284.599 311.027 284.513 310.642C284.418 310.219 284.449 309.798 284.607 309.378C284.764 308.954 285.052 308.596 285.471 308.301C285.889 308.007 286.38 307.797 286.944 307.67C287.565 307.53 288.135 307.508 288.653 307.604C289.174 307.695 289.606 307.907 289.948 308.238C290.291 308.569 290.527 308.979 290.656 309.466L289.611 309.785C289.435 309.268 289.151 308.912 288.758 308.716C288.37 308.519 287.854 308.493 287.209 308.637C286.539 308.788 286.077 309.022 285.824 309.339C285.574 309.651 285.487 309.981 285.565 310.328C285.633 310.629 285.797 310.852 286.058 310.998C286.315 311.144 286.917 311.219 287.862 311.223C288.811 311.222 289.47 311.26 289.84 311.337C290.378 311.453 290.802 311.657 291.113 311.952C291.422 312.243 291.627 312.613 291.728 313.063C291.829 313.509 291.795 313.959 291.629 314.412C291.462 314.862 291.163 315.252 290.732 315.581C290.305 315.905 289.792 316.134 289.193 316.269C288.435 316.439 287.774 316.472 287.21 316.366C286.649 316.26 286.173 316.019 285.78 315.643C285.39 315.262 285.125 314.793 284.984 314.236ZM295.683 313.694L296.036 314.569C295.76 314.695 295.508 314.784 295.279 314.835C294.906 314.919 294.603 314.925 294.37 314.853C294.138 314.781 293.959 314.66 293.832 314.488C293.704 314.312 293.571 313.916 293.433 313.298L292.648 309.805L291.894 309.975L291.714 309.175L292.469 309.005L292.131 307.501L293.016 306.654L293.492 308.775L294.527 308.543L294.706 309.343L293.672 309.575L294.469 313.126C294.535 313.419 294.594 313.604 294.647 313.68C294.704 313.755 294.778 313.809 294.87 313.84C294.965 313.871 295.088 313.869 295.241 313.835C295.355 313.809 295.503 313.762 295.683 313.694ZM295.837 311.437C295.585 310.313 295.71 309.41 296.214 308.728C296.635 308.161 297.221 307.793 297.972 307.624C298.806 307.437 299.55 307.558 300.203 307.988C300.855 308.414 301.29 309.109 301.506 310.073C301.682 310.854 301.702 311.497 301.566 311.999C301.434 312.498 301.171 312.921 300.777 313.27C300.387 313.618 299.927 313.851 299.397 313.97C298.547 314.161 297.798 314.043 297.149 313.616C296.505 313.189 296.067 312.462 295.837 311.437ZM296.895 311.199C297.069 311.977 297.37 312.522 297.796 312.834C298.222 313.143 298.692 313.24 299.207 313.124C299.717 313.009 300.099 312.72 300.351 312.255C300.603 311.79 300.639 311.159 300.46 310.362C300.292 309.611 299.993 309.082 299.563 308.774C299.137 308.462 298.67 308.362 298.163 308.476C297.648 308.592 297.265 308.88 297.012 309.341C296.759 309.803 296.72 310.422 296.895 311.199ZM306.882 309.808L307.923 309.712C307.969 310.435 307.808 311.045 307.44 311.545C307.074 312.039 306.56 312.361 305.897 312.51C305.066 312.696 304.336 312.576 303.708 312.149C303.082 311.717 302.656 310.994 302.428 309.98C302.281 309.325 302.261 308.727 302.368 308.186C302.474 307.646 302.722 307.204 303.109 306.86C303.499 306.513 303.955 306.28 304.477 306.163C305.137 306.014 305.714 306.061 306.208 306.302C306.702 306.54 307.077 306.952 307.333 307.539L306.367 307.918C306.18 307.532 305.942 307.263 305.651 307.112C305.365 306.96 305.051 306.923 304.707 307C304.189 307.116 303.81 307.398 303.57 307.844C303.329 308.286 303.299 308.91 303.479 309.714C303.663 310.53 303.952 311.087 304.347 311.387C304.743 311.686 305.192 311.779 305.695 311.666C306.099 311.575 306.409 311.376 306.624 311.067C306.839 310.759 306.925 310.339 306.882 309.808ZM309.279 311.606L307.397 303.225L308.426 302.993L309.499 307.773L311.38 304.756L312.712 304.457L310.897 307.231L314.31 310.475L313.041 310.76L310.337 308.107L309.767 308.968L310.308 311.374L309.279 311.606Z" fill="#4A5565"/>
<path d="M266.279 345.545L268.624 344.756C268.814 345.284 269.114 345.67 269.523 345.914C269.931 346.153 270.355 346.223 270.796 346.124C271.299 346.011 271.679 345.712 271.937 345.228C272.193 344.738 272.229 344.081 272.044 343.258C271.87 342.486 271.566 341.948 271.132 341.644C270.701 341.332 270.209 341.238 269.654 341.363C268.963 341.518 268.411 341.964 268 342.699L265.981 342.855L265.746 336.034L272.118 334.603L272.624 336.858L268.079 337.879L268.182 340.099C268.659 339.71 269.177 339.452 269.738 339.326C270.807 339.086 271.8 339.271 272.718 339.882C273.636 340.492 274.234 341.418 274.512 342.659C274.745 343.693 274.652 344.684 274.234 345.631C273.666 346.924 272.655 347.733 271.203 348.059C270.043 348.32 269.027 348.221 268.155 347.762C267.283 347.304 266.658 346.564 266.279 345.545Z" fill="#D08700"/>
<path d="M378.552 281.692C377.342 276.303 380.73 270.953 386.118 269.742L487.916 246.869C493.304 245.659 498.654 249.045 499.864 254.434L511.257 305.171C512.467 310.559 509.08 315.909 503.692 317.12L401.894 339.993C396.505 341.204 391.156 337.817 389.946 332.428L378.552 281.692Z" fill="#FEF2F2"/>
<path d="M394.254 292.513L392.372 284.131L398.432 282.77L398.654 283.759L393.703 284.871L394.28 287.438L398.916 286.397L399.137 287.38L394.5 288.422L395.141 291.274L400.286 290.118L400.508 291.107L394.254 292.513ZM401.223 290.947L402.732 287.293L400.025 284.838L401.312 284.549L402.563 285.763C402.799 285.994 402.991 286.189 403.139 286.348C403.25 286.059 403.354 285.802 403.452 285.576L404.153 283.911L405.382 283.634L403.926 286.964L406.905 289.67L405.642 289.954L403.972 288.347L403.526 287.913L402.469 290.667L401.223 290.947ZM408.286 291.804L406.4 283.406L407.337 283.195L407.514 283.984C407.666 283.626 407.864 283.339 408.108 283.124C408.351 282.905 408.671 282.751 409.067 282.662C409.585 282.546 410.073 282.576 410.529 282.754C410.985 282.932 411.369 283.242 411.681 283.685C411.991 284.123 412.212 284.632 412.342 285.211C412.481 285.833 412.495 286.418 412.382 286.968C412.272 287.513 412.034 287.967 411.667 288.33C411.303 288.688 410.887 288.92 410.418 289.025C410.075 289.102 409.75 289.099 409.443 289.016C409.14 288.932 408.876 288.799 408.651 288.617L409.315 291.573L408.286 291.804ZM408.021 286.266C408.196 287.048 408.484 287.59 408.884 287.892C409.285 288.195 409.71 288.295 410.159 288.194C410.617 288.091 410.964 287.811 411.202 287.353C411.442 286.891 411.471 286.254 411.289 285.442C411.115 284.668 410.825 284.125 410.418 283.812C410.016 283.498 409.593 283.391 409.151 283.49C408.713 283.589 408.37 283.882 408.123 284.37C407.88 284.853 407.845 285.485 408.021 286.266ZM412.67 280.814L412.404 279.631L413.433 279.399L413.699 280.583L412.67 280.814ZM414.286 288.012L412.923 281.94L413.952 281.709L415.315 287.78L414.286 288.012ZM416.876 287.43L415.512 281.358L416.438 281.15L416.645 282.071C416.785 281.587 416.938 281.254 417.106 281.072C417.277 280.89 417.482 280.772 417.722 280.718C418.069 280.64 418.447 280.671 418.855 280.812L418.714 281.846C418.43 281.754 418.161 281.736 417.91 281.792C417.685 281.843 417.498 281.957 417.35 282.134C417.201 282.308 417.115 282.524 417.093 282.781C417.061 283.172 417.093 283.585 417.191 284.02L417.905 287.199L416.876 287.43ZM419.175 279.352L418.91 278.169L419.939 277.938L420.204 279.121L419.175 279.352ZM420.792 286.55L419.428 280.478L420.457 280.247L421.821 286.319L420.792 286.55ZM423.393 285.965L422.029 279.894L422.956 279.686L423.149 280.549C423.446 279.782 424.015 279.304 424.857 279.114C425.223 279.032 425.573 279.024 425.908 279.088C426.246 279.149 426.515 279.268 426.715 279.448C426.916 279.627 427.079 279.856 427.206 280.136C427.287 280.318 427.381 280.647 427.488 281.124L428.327 284.857L427.297 285.088L426.468 281.395C426.374 280.976 426.264 280.672 426.138 280.484C426.01 280.293 425.83 280.159 425.597 280.083C425.367 280.003 425.115 279.993 424.84 280.055C424.402 280.154 424.054 280.378 423.796 280.728C423.542 281.077 423.503 281.641 423.677 282.418L424.422 285.734L423.393 285.965ZM429.834 285.047L430.868 284.97C430.979 285.27 431.146 285.468 431.368 285.567C431.667 285.7 432.037 285.717 432.479 285.617C432.955 285.51 433.302 285.332 433.518 285.084C433.734 284.835 433.85 284.529 433.864 284.165C433.87 283.943 433.796 283.498 433.642 282.828C433.311 283.459 432.81 283.849 432.14 284C431.305 284.188 430.591 284.032 429.999 283.532C429.406 283.033 429.015 282.362 428.826 281.52C428.696 280.94 428.681 280.383 428.781 279.848C428.88 279.309 429.098 278.862 429.435 278.506C429.775 278.15 430.214 277.911 430.751 277.79C431.468 277.629 432.123 277.786 432.718 278.261L432.554 277.529L433.503 277.316L434.682 282.564C434.894 283.509 434.947 284.2 434.841 284.636C434.739 285.075 434.504 285.457 434.137 285.779C433.773 286.101 433.286 286.331 432.676 286.468C431.952 286.631 431.33 286.598 430.81 286.371C430.292 286.147 429.966 285.706 429.834 285.047ZM429.867 281.208C430.046 282.004 430.335 282.55 430.733 282.845C431.132 283.14 431.569 283.233 432.046 283.126C432.518 283.02 432.874 282.75 433.113 282.316C433.351 281.878 433.382 281.271 433.208 280.493C433.041 279.75 432.749 279.227 432.333 278.924C431.92 278.62 431.482 278.521 431.017 278.625C430.559 278.728 430.213 279.002 429.976 279.448C429.739 279.889 429.703 280.476 429.867 281.208Z" fill="#4A5565"/>
<path d="M406.155 317.512L403.746 318.053L401.706 308.972C401.011 309.993 400.11 310.835 399.004 311.498L398.513 309.311C399.095 308.964 399.691 308.421 400.3 307.684C400.908 306.941 401.263 306.156 401.366 305.328L403.321 304.889L406.155 317.512ZM417.401 312.634L417.904 314.872L409.457 316.77C409.358 315.903 409.453 315.041 409.741 314.184C410.028 313.321 410.705 312.111 411.773 310.556C412.632 309.3 413.144 308.465 413.309 308.049C413.529 307.477 413.584 306.948 413.475 306.462C413.354 305.925 413.116 305.546 412.76 305.326C412.409 305.099 411.979 305.042 411.47 305.156C410.967 305.269 410.601 305.511 410.372 305.881C410.142 306.25 410.084 306.792 410.196 307.505L407.741 307.805C407.586 306.446 407.821 305.394 408.446 304.647C409.071 303.9 409.949 303.399 411.081 303.145C412.322 302.866 413.372 302.981 414.231 303.491C415.09 304.001 415.631 304.753 415.855 305.748C415.982 306.314 416 306.877 415.91 307.438C415.824 307.992 415.624 308.598 415.31 309.257C415.101 309.694 414.696 310.347 414.092 311.215C413.488 312.084 413.109 312.655 412.955 312.93C412.806 313.204 412.693 313.463 412.616 313.709L417.401 312.634Z" fill="#E7000B"/>
</g>
<g filter="url(#filter1_d_2022_22)">
<mask id="path-25-inside-2_2022_22" fill="white">
<path d="M39.2154 368.031C37.0419 359.465 42.2232 350.759 50.788 348.585L461.75 244.248C470.315 242.074 479.02 247.254 481.194 255.82L556.152 551.219C558.326 559.784 553.144 568.49 544.58 570.665L133.617 675.001C125.053 677.176 116.347 671.995 114.174 663.43L39.2154 368.031Z"/>
</mask>
<path d="M39.2154 368.031C37.0419 359.465 42.2232 350.759 50.788 348.585L461.75 244.248C470.315 242.074 479.02 247.254 481.194 255.82L556.152 551.219C558.326 559.784 553.144 568.49 544.58 570.665L133.617 675.001C125.053 677.176 116.347 671.995 114.174 663.43L39.2154 368.031Z" fill="white" shape-rendering="crispEdges"/>
<path d="M50.788 348.585L51.034 349.554L461.996 245.218L461.75 244.248L461.504 243.279L50.5421 347.616L50.788 348.585ZM481.194 255.82L480.224 256.066L555.183 551.465L556.152 551.219L557.121 550.973L482.163 255.573L481.194 255.82ZM544.58 570.665L544.334 569.695L133.371 674.032L133.617 675.001L133.863 675.971L544.825 571.634L544.58 570.665ZM114.174 663.43L115.143 663.184L40.1846 367.784L39.2154 368.031L38.2461 368.277L113.205 663.676L114.174 663.43ZM133.617 675.001L133.371 674.032C125.342 676.071 117.181 671.214 115.143 663.184L114.174 663.43L113.205 663.676C115.514 672.777 124.763 678.281 133.863 675.971L133.617 675.001ZM556.152 551.219L555.183 551.465C557.221 559.495 552.363 567.657 544.334 569.695L544.58 570.665L544.825 571.634C553.926 569.324 559.431 560.073 557.121 550.973L556.152 551.219ZM461.75 244.248L461.996 245.218C470.026 243.179 478.187 248.036 480.224 256.066L481.194 255.82L482.163 255.573C479.853 246.473 470.604 240.969 461.504 243.279L461.75 244.248ZM50.788 348.585L50.5421 347.616C41.4419 349.926 35.9368 359.176 38.2461 368.277L39.2154 368.031L40.1846 367.784C38.147 359.755 43.0045 351.593 51.034 349.554L50.788 348.585Z" fill="#E5E7EB" mask="url(#path-25-inside-2_2022_22)"/>
<path d="M67.628 378.356C66.8129 375.144 68.7559 371.88 71.9677 371.064C75.1795 370.249 78.4439 372.192 79.259 375.403C80.074 378.615 78.131 381.88 74.9192 382.696C71.7074 383.511 68.443 381.568 67.628 378.356Z" fill="#FF6467"/>
<path d="M87.013 373.435C86.1979 370.223 88.1409 366.958 91.3527 366.143C94.5645 365.327 97.829 367.27 98.644 370.482C99.459 373.694 97.516 376.959 94.3042 377.774C91.0924 378.59 87.828 376.647 87.013 373.435Z" fill="#FDC700"/>
<path d="M106.398 368.513C105.583 365.301 107.526 362.037 110.738 361.221C113.95 360.406 117.214 362.348 118.029 365.56C118.844 368.772 116.901 372.037 113.689 372.853C110.477 373.668 107.213 371.725 106.398 368.513Z" fill="#05DF72"/>
<path d="M126.611 364.661L127.627 364.307C127.782 364.711 127.982 365.024 128.228 365.248C128.477 365.467 128.812 365.612 129.233 365.682C129.653 365.749 130.1 365.722 130.573 365.602C130.993 365.495 131.348 365.339 131.639 365.132C131.929 364.925 132.124 364.694 132.224 364.439C132.328 364.179 132.347 363.92 132.281 363.663C132.215 363.402 132.082 363.194 131.881 363.039C131.68 362.881 131.388 362.779 131.006 362.735C130.761 362.705 130.233 362.696 129.422 362.708C128.61 362.717 128.03 362.679 127.682 362.594C127.231 362.487 126.869 362.305 126.594 362.048C126.322 361.786 126.138 361.464 126.041 361.082C125.934 360.662 125.954 360.24 126.1 359.816C126.246 359.388 126.523 359.021 126.933 358.715C127.343 358.41 127.829 358.186 128.389 358.044C129.006 357.887 129.575 357.849 130.095 357.931C130.619 358.008 131.056 358.207 131.408 358.529C131.759 358.85 132.007 359.253 132.149 359.737L131.113 360.084C130.923 359.573 130.629 359.224 130.231 359.039C129.838 358.853 129.321 358.841 128.681 359.003C128.015 359.172 127.559 359.419 127.315 359.743C127.074 360.062 126.997 360.394 127.084 360.739C127.16 361.038 127.33 361.256 127.595 361.395C127.856 361.534 128.459 361.592 129.405 361.57C130.353 361.543 131.013 361.563 131.385 361.63C131.926 361.73 132.356 361.923 132.674 362.209C132.992 362.491 133.207 362.856 133.32 363.302C133.433 363.745 133.412 364.196 133.258 364.654C133.104 365.109 132.816 365.506 132.394 365.847C131.976 366.183 131.469 366.426 130.875 366.577C130.121 366.768 129.461 366.819 128.894 366.729C128.331 366.639 127.848 366.411 127.445 366.045C127.045 365.675 126.767 365.214 126.611 364.661ZM137.291 363.824L137.668 364.689C137.396 364.823 137.146 364.919 136.919 364.976C136.548 365.07 136.245 365.085 136.011 365.019C135.777 364.954 135.594 364.837 135.462 364.669C135.33 364.497 135.186 364.104 135.031 363.491L134.15 360.021L133.4 360.211L133.199 359.416L133.948 359.226L133.569 357.732L134.43 356.861L134.965 358.968L135.993 358.707L136.194 359.502L135.167 359.763L136.061 363.29C136.135 363.581 136.2 363.764 136.255 363.839C136.314 363.913 136.39 363.964 136.482 363.993C136.578 364.021 136.701 364.016 136.853 363.977C136.966 363.949 137.112 363.897 137.291 363.824ZM137.383 361.564C137.099 360.447 137.2 359.541 137.684 358.845C138.09 358.267 138.665 357.883 139.411 357.694C140.24 357.483 140.987 357.584 141.652 357.995C142.315 358.403 142.769 359.086 143.012 360.044C143.209 360.82 143.247 361.461 143.125 361.968C143.007 362.469 142.755 362.9 142.371 363.259C141.99 363.618 141.537 363.864 141.011 363.998C140.166 364.212 139.414 364.115 138.754 363.706C138.098 363.296 137.641 362.582 137.383 361.564ZM138.433 361.297C138.629 362.069 138.945 362.606 139.38 362.907C139.814 363.203 140.286 363.287 140.797 363.157C141.305 363.028 141.678 362.728 141.917 362.256C142.156 361.785 142.175 361.153 141.974 360.362C141.785 359.616 141.471 359.095 141.034 358.799C140.599 358.498 140.129 358.412 139.626 358.54C139.115 358.67 138.739 358.968 138.499 359.436C138.259 359.904 138.237 360.525 138.433 361.297ZM148.378 359.631L149.416 359.506C149.482 360.227 149.338 360.842 148.984 361.351C148.632 361.855 148.127 362.191 147.468 362.358C146.643 362.568 145.91 362.468 145.27 362.058C144.633 361.643 144.186 360.933 143.931 359.925C143.766 359.274 143.729 358.677 143.821 358.134C143.913 357.591 144.147 357.142 144.525 356.788C144.906 356.43 145.355 356.184 145.874 356.053C146.529 355.886 147.107 355.917 147.608 356.145C148.108 356.368 148.494 356.77 148.766 357.35L147.811 357.755C147.614 357.374 147.368 357.112 147.074 356.969C146.783 356.825 146.468 356.797 146.127 356.883C145.612 357.014 145.241 357.306 145.013 357.758C144.785 358.207 144.772 358.831 144.974 359.63C145.18 360.441 145.485 360.99 145.888 361.278C146.292 361.567 146.744 361.648 147.243 361.521C147.645 361.419 147.949 361.211 148.155 360.896C148.361 360.582 148.436 360.16 148.378 359.631ZM150.824 361.361L148.711 353.035L149.733 352.776L150.938 357.524L152.735 354.456L154.058 354.12L152.32 356.943L155.822 360.092L154.561 360.413L151.785 357.835L151.239 358.711L151.846 361.102L150.824 361.361ZM159.956 359.043L157.843 350.717L158.945 350.437L160.809 357.78L164.909 356.739L165.158 357.722L159.956 359.043ZM169.981 354.43L171.071 354.293C171.061 354.952 170.874 355.509 170.509 355.964C170.145 356.42 169.613 356.736 168.913 356.914C168.031 357.138 167.261 357.045 166.605 356.635C165.952 356.221 165.501 355.523 165.252 354.543C164.995 353.528 165.056 352.674 165.436 351.981C165.817 351.288 166.423 350.836 167.256 350.624C168.063 350.419 168.791 350.527 169.442 350.946C170.092 351.365 170.544 352.073 170.796 353.068C170.812 353.129 170.833 353.22 170.86 353.343L166.362 354.484C166.568 355.137 166.884 355.597 167.31 355.864C167.737 356.13 168.202 356.2 168.705 356.072C169.08 355.977 169.375 355.797 169.59 355.533C169.805 355.269 169.935 354.901 169.981 354.43ZM166.205 353.63L169.573 352.774C169.399 352.279 169.174 351.931 168.897 351.731C168.472 351.42 168 351.33 167.481 351.462C167.011 351.581 166.656 351.839 166.414 352.235C166.175 352.63 166.106 353.095 166.205 353.63ZM174.495 355.352L170.67 349.903L171.749 349.629L173.96 352.912C174.199 353.266 174.431 353.639 174.655 354.029C174.665 353.688 174.695 353.274 174.744 352.785L175.151 348.765L176.201 348.498L175.449 355.109L174.495 355.352ZM182.271 351.31L183.36 351.172C183.35 351.832 183.163 352.389 182.799 352.844C182.435 353.299 181.903 353.616 181.202 353.794C180.32 354.018 179.551 353.925 178.895 353.515C178.242 353.101 177.791 352.403 177.542 351.422C177.284 350.408 177.346 349.554 177.726 348.861C178.106 348.168 178.713 347.715 179.546 347.504C180.352 347.299 181.081 347.407 181.731 347.826C182.382 348.245 182.833 348.953 183.086 349.948C183.101 350.009 183.123 350.1 183.149 350.222L178.652 351.364C178.858 352.017 179.174 352.477 179.6 352.744C180.026 353.01 180.491 353.08 180.995 352.952C181.37 352.857 181.665 352.677 181.88 352.413C182.095 352.149 182.225 351.781 182.271 351.31ZM178.495 350.509L181.863 349.654C181.689 349.158 181.463 348.811 181.187 348.611C180.761 348.3 180.289 348.21 179.771 348.342C179.301 348.461 178.945 348.718 178.703 349.114C178.465 349.509 178.396 349.974 178.495 350.509ZM185.087 352.663L182.974 344.337L183.996 344.077L186.109 352.403L185.087 352.663ZM186.833 350.303L187.804 349.887C187.963 350.278 188.199 350.548 188.511 350.699C188.827 350.848 189.218 350.864 189.684 350.746C190.154 350.626 190.478 350.443 190.657 350.196C190.835 349.946 190.892 349.692 190.826 349.434C190.768 349.203 190.621 349.047 190.387 348.965C190.224 348.91 189.846 348.883 189.254 348.884C188.456 348.885 187.894 348.854 187.568 348.792C187.245 348.725 186.977 348.59 186.764 348.386C186.554 348.177 186.411 347.925 186.336 347.63C186.268 347.361 186.266 347.098 186.329 346.84C186.396 346.577 186.516 346.343 186.689 346.138C186.818 345.98 187.009 345.827 187.262 345.678C187.517 345.525 187.802 345.408 188.116 345.328C188.589 345.208 189.021 345.171 189.412 345.217C189.806 345.262 190.118 345.38 190.348 345.572C190.577 345.759 190.773 346.04 190.936 346.414L189.971 346.804C189.847 346.505 189.653 346.296 189.389 346.178C189.129 346.058 188.801 346.049 188.403 346.15C187.934 346.269 187.618 346.432 187.457 346.638C187.296 346.844 187.241 347.052 187.294 347.26C187.328 347.392 187.4 347.501 187.51 347.586C187.621 347.674 187.775 347.732 187.971 347.759C188.083 347.771 188.406 347.782 188.94 347.791C189.712 347.8 190.256 347.832 190.572 347.884C190.891 347.933 191.161 348.053 191.383 348.247C191.606 348.44 191.761 348.711 191.849 349.059C191.936 349.4 191.917 349.747 191.793 350.101C191.672 350.45 191.446 350.756 191.113 351.018C190.78 351.276 190.376 351.465 189.903 351.585C189.119 351.784 188.48 351.773 187.984 351.552C187.493 351.33 187.109 350.914 186.833 350.303Z" fill="#6A7282"/>
<path d="M75.9905 411.312C74.6321 405.959 77.8704 400.517 83.2234 399.158L457.354 304.173C462.707 302.814 468.148 306.052 469.506 311.405L503.94 447.104C505.299 452.457 502.06 457.898 496.707 459.258L122.577 554.243C117.224 555.602 111.783 552.364 110.425 547.011L75.9905 411.312Z" fill="url(#paint3_linear_2022_22)"/>
<path d="M106.552 466.698C106.009 464.556 107.304 462.38 109.445 461.836L162.105 448.467C164.246 447.923 166.423 449.218 166.966 451.36L184.871 521.92L124.457 537.258L106.552 466.698Z" fill="#155DFC"/>
<path d="M160.669 426.544C160.126 424.403 161.421 422.227 163.562 421.683L216.222 408.314C218.364 407.77 220.54 409.065 221.083 411.206L245.285 506.582L184.871 521.92L160.669 426.544Z" fill="#2B7FFF"/>
<path d="M230.528 448.425C229.984 446.284 231.279 444.107 233.421 443.564L286.081 430.194C288.222 429.651 290.398 430.946 290.942 433.087L305.699 491.244L245.285 506.582L230.528 448.425Z" fill="#155DFC"/>
<path d="M278.35 383.464C277.806 381.323 279.102 379.147 281.243 378.603L333.903 365.233C336.044 364.69 338.22 365.985 338.764 368.126L366.113 475.906L305.699 491.244L278.35 383.464Z" fill="#2B7FFF"/>
<path d="M345.061 392.941C344.517 390.8 345.813 388.624 347.954 388.08L400.614 374.71C402.755 374.167 404.931 375.462 405.475 377.603L426.527 460.568L366.113 475.906L345.061 392.941Z" fill="#155DFC"/>
<path d="M400.752 358.99C400.208 356.849 401.504 354.672 403.645 354.129L456.305 340.759C458.446 340.215 460.622 341.511 461.166 343.652L486.941 445.229L426.527 460.568L400.752 358.99Z" fill="#2B7FFF"/>
<path d="M119.279 581.905C117.921 576.552 121.159 571.111 126.512 569.752L227.632 544.079C232.985 542.72 238.426 545.958 239.784 551.311L252.574 601.714C253.932 607.067 250.694 612.508 245.341 613.867L144.221 639.54C138.868 640.899 133.427 637.661 132.069 632.308L119.279 581.905Z" fill="#F9FAFB"/>
<path d="M135.438 592.247L133.326 583.921L134.427 583.641L136.54 591.967L135.438 592.247ZM138.357 591.506L136.827 585.474L137.747 585.241L137.965 586.098C138.239 585.323 138.795 584.83 139.632 584.617C139.995 584.525 140.345 584.507 140.682 584.562C141.021 584.613 141.294 584.725 141.499 584.899C141.704 585.072 141.874 585.297 142.009 585.573C142.094 585.753 142.197 586.08 142.318 586.553L143.259 590.262L142.236 590.521L141.305 586.852C141.2 586.436 141.081 586.135 140.95 585.951C140.817 585.763 140.634 585.634 140.398 585.565C140.166 585.491 139.914 585.489 139.641 585.558C139.206 585.668 138.864 585.902 138.616 586.259C138.372 586.616 138.348 587.18 138.544 587.952L139.38 591.246L138.357 591.506ZM147.146 586.427L148.162 586.073C148.317 586.477 148.518 586.79 148.764 587.014C149.013 587.233 149.348 587.378 149.769 587.448C150.188 587.515 150.635 587.488 151.108 587.368C151.529 587.261 151.884 587.104 152.174 586.898C152.464 586.691 152.659 586.46 152.76 586.205C152.863 585.945 152.882 585.686 152.817 585.429C152.75 585.168 152.617 584.96 152.417 584.805C152.215 584.647 151.924 584.545 151.542 584.501C151.296 584.471 150.768 584.462 149.957 584.474C149.145 584.483 148.565 584.445 148.217 584.36C147.767 584.253 147.404 584.071 147.13 583.814C146.858 583.552 146.673 583.23 146.576 582.848C146.47 582.428 146.489 582.006 146.636 581.582C146.781 581.154 147.059 580.787 147.469 580.481C147.879 580.176 148.364 579.952 148.924 579.81C149.542 579.653 150.11 579.615 150.631 579.697C151.154 579.774 151.591 579.973 151.943 580.295C152.295 580.616 152.542 581.019 152.685 581.503L151.649 581.85C151.458 581.339 151.164 580.99 150.767 580.805C150.373 580.619 149.856 580.607 149.216 580.769C148.55 580.938 148.095 581.185 147.85 581.509C147.609 581.828 147.532 582.16 147.619 582.505C147.695 582.804 147.866 583.022 148.13 583.161C148.392 583.3 148.995 583.358 149.94 583.336C150.888 583.309 151.548 583.329 151.92 583.396C152.461 583.496 152.891 583.689 153.209 583.975C153.527 584.257 153.742 584.622 153.856 585.068C153.968 585.511 153.947 585.962 153.794 586.42C153.639 586.874 153.351 587.272 152.93 587.613C152.511 587.949 152.005 588.192 151.41 588.343C150.657 588.534 149.997 588.585 149.43 588.495C148.867 588.404 148.384 588.176 147.981 587.811C147.581 587.441 147.302 586.98 147.146 586.427ZM157.827 585.59L158.203 586.455C157.931 586.589 157.681 586.684 157.454 586.742C157.083 586.836 156.78 586.851 156.546 586.785C156.312 586.72 156.129 586.603 155.998 586.435C155.865 586.263 155.722 585.87 155.566 585.257L154.685 581.787L153.936 581.977L153.734 581.182L154.484 580.992L154.105 579.498L154.965 578.626L155.5 580.734L156.528 580.473L156.73 581.268L155.702 581.529L156.597 585.056C156.671 585.347 156.735 585.53 156.791 585.605C156.85 585.678 156.925 585.73 157.017 585.759C157.113 585.787 157.237 585.782 157.388 585.743C157.502 585.714 157.648 585.663 157.827 585.59ZM157.918 583.33C157.635 582.213 157.735 581.307 158.22 580.611C158.625 580.033 159.201 579.649 159.946 579.46C160.776 579.249 161.522 579.35 162.187 579.761C162.851 580.169 163.304 580.852 163.547 581.81C163.744 582.586 163.782 583.227 163.661 583.734C163.542 584.235 163.291 584.666 162.906 585.025C162.526 585.384 162.072 585.63 161.546 585.764C160.702 585.978 159.95 585.881 159.29 585.472C158.634 585.062 158.176 584.348 157.918 583.33ZM158.969 583.063C159.165 583.835 159.48 584.372 159.915 584.673C160.349 584.969 160.822 585.053 161.333 584.923C161.84 584.794 162.213 584.494 162.452 584.022C162.691 583.551 162.71 582.919 162.51 582.128C162.32 581.382 162.007 580.861 161.569 580.565C161.134 580.264 160.665 580.178 160.161 580.306C159.65 580.436 159.275 580.734 159.035 581.202C158.795 581.67 158.773 582.291 158.969 583.063ZM168.913 581.397L169.952 581.272C170.018 581.993 169.873 582.608 169.519 583.117C169.167 583.621 168.662 583.957 168.003 584.124C167.178 584.334 166.445 584.234 165.805 583.824C165.168 583.409 164.722 582.699 164.466 581.691C164.301 581.04 164.264 580.443 164.356 579.9C164.448 579.356 164.683 578.908 165.061 578.554C165.441 578.196 165.891 577.95 166.409 577.819C167.064 577.652 167.642 577.683 168.143 577.91C168.643 578.134 169.03 578.536 169.302 579.116L168.347 579.521C168.149 579.14 167.903 578.878 167.609 578.735C167.319 578.591 167.003 578.563 166.662 578.649C166.148 578.78 165.776 579.072 165.549 579.524C165.32 579.973 165.307 580.597 165.51 581.396C165.715 582.207 166.02 582.756 166.424 583.044C166.827 583.333 167.279 583.414 167.779 583.287C168.18 583.185 168.484 582.977 168.69 582.662C168.897 582.348 168.971 581.926 168.913 581.397ZM171.359 583.127L169.247 574.801L170.269 574.542L171.474 579.29L173.27 576.222L174.594 575.886L172.856 578.709L176.357 581.858L175.096 582.178L172.32 579.601L171.775 580.477L172.382 582.868L171.359 583.127Z" fill="#4A5565"/>
<path d="M149.256 614.229L149.82 616.452L141.429 618.583C141.307 617.719 141.377 616.855 141.641 615.99C141.904 615.119 142.548 613.892 143.572 612.308C144.396 611.028 144.885 610.179 145.039 609.759C145.243 609.181 145.283 608.651 145.161 608.168C145.025 607.634 144.777 607.262 144.415 607.052C144.058 606.834 143.626 606.79 143.121 606.918C142.621 607.045 142.262 607.296 142.043 607.672C141.824 608.048 141.78 608.591 141.912 609.301L139.466 609.669C139.274 608.315 139.48 607.256 140.084 606.492C140.688 605.728 141.552 605.203 142.677 604.918C143.909 604.605 144.962 604.691 145.834 605.177C146.707 605.663 147.269 606.4 147.52 607.388C147.663 607.95 147.697 608.513 147.622 609.076C147.551 609.632 147.368 610.244 147.072 610.911C146.876 611.354 146.488 612.018 145.909 612.902C145.329 613.787 144.966 614.369 144.819 614.648C144.678 614.926 144.572 615.188 144.502 615.436L149.256 614.229ZM156.141 614.848L155.503 612.334L150.392 613.632L149.86 611.536L153.266 602.23L155.276 601.719L157.286 609.642L158.837 609.248L159.371 611.353L157.82 611.746L158.458 614.259L156.141 614.848ZM154.969 610.23L153.886 605.962L152.098 610.959L154.969 610.23ZM158.597 603.479L158.033 601.255L166.219 599.177L166.66 600.915C166.153 601.751 165.708 602.879 165.325 604.3C164.942 605.721 164.744 607.18 164.731 608.677C164.722 610.166 164.86 611.461 165.145 612.561L162.837 613.148C162.438 611.411 162.347 609.56 162.561 607.595C162.782 605.629 163.275 603.796 164.04 602.097L158.597 603.479Z" fill="#101828"/>
<path d="M251.415 548.358C250.057 543.005 253.295 537.564 258.648 536.205L359.776 510.53C365.129 509.171 370.57 512.409 371.928 517.762L384.718 568.164C386.076 573.518 382.838 578.959 377.485 580.318L276.357 605.993C271.004 607.352 265.564 604.114 264.205 598.761L251.415 548.358Z" fill="#FEFCE8"/>
<path d="M267.342 558.759L265.229 550.433L266.331 550.153L268.194 557.497L272.294 556.456L272.544 557.438L267.342 558.759ZM272.585 554.218C272.301 553.101 272.402 552.195 272.887 551.499C273.292 550.921 273.867 550.537 274.613 550.348C275.442 550.137 276.189 550.238 276.854 550.649C277.518 551.057 277.971 551.74 278.214 552.698C278.411 553.474 278.449 554.115 278.327 554.622C278.209 555.123 277.958 555.554 277.573 555.913C277.193 556.272 276.739 556.518 276.213 556.652C275.369 556.866 274.617 556.769 273.957 556.36C273.301 555.95 272.843 555.236 272.585 554.218ZM273.636 553.951C273.832 554.723 274.147 555.26 274.582 555.56C275.016 555.857 275.489 555.941 276 555.811C276.507 555.682 276.88 555.382 277.119 554.91C277.358 554.438 277.377 553.807 277.176 553.016C276.987 552.27 276.674 551.749 276.236 551.453C275.801 551.152 275.332 551.066 274.828 551.194C274.317 551.323 273.941 551.622 273.701 552.09C273.462 552.558 273.44 553.178 273.636 553.951ZM281.318 555.21L277.942 549.648L278.998 549.379L280.841 552.617L281.528 553.821C281.527 553.753 281.525 553.312 281.525 552.498L281.588 548.722L282.639 548.455L284.429 551.724L285.023 552.801L285.074 551.549L285.223 547.799L286.216 547.547L285.861 554.057L284.799 554.327L282.923 550.958L282.429 549.989L282.386 554.939L281.318 555.21ZM290.924 549.924L291.941 549.57C292.095 549.973 292.296 550.287 292.542 550.511C292.791 550.73 293.126 550.875 293.547 550.945C293.967 551.012 294.414 550.985 294.887 550.865C295.307 550.758 295.662 550.601 295.952 550.395C296.242 550.188 296.438 549.957 296.538 549.702C296.642 549.442 296.661 549.183 296.595 548.926C296.529 548.665 296.396 548.457 296.195 548.302C295.994 548.144 295.702 548.042 295.32 547.998C295.075 547.968 294.546 547.959 293.735 547.971C292.924 547.98 292.344 547.942 291.996 547.857C291.545 547.749 291.183 547.567 290.908 547.311C290.636 547.049 290.452 546.727 290.355 546.345C290.248 545.925 290.268 545.503 290.414 545.079C290.559 544.651 290.837 544.284 291.247 543.978C291.657 543.673 292.143 543.449 292.703 543.307C293.32 543.15 293.889 543.112 294.409 543.194C294.932 543.27 295.37 543.47 295.722 543.792C296.073 544.113 296.32 544.516 296.463 545L295.427 545.347C295.237 544.835 294.943 544.487 294.545 544.302C294.151 544.116 293.635 544.104 292.995 544.266C292.328 544.435 291.873 544.682 291.629 545.006C291.387 545.325 291.31 545.657 291.398 546.002C291.474 546.301 291.644 546.519 291.909 546.658C292.17 546.797 292.773 546.855 293.719 546.833C294.667 546.806 295.327 546.826 295.698 546.893C296.24 546.993 296.67 547.186 296.988 547.472C297.305 547.754 297.521 548.119 297.634 548.565C297.747 549.008 297.726 549.459 297.572 549.917C297.417 550.371 297.129 550.769 296.708 551.11C296.29 551.446 295.783 551.689 295.189 551.84C294.435 552.031 293.775 552.082 293.208 551.992C292.645 551.901 292.162 551.673 291.759 551.308C291.359 550.938 291.081 550.477 290.924 549.924ZM301.605 549.087L301.982 549.952C301.709 550.086 301.46 550.181 301.233 550.239C300.861 550.333 300.559 550.348 300.325 550.282C300.09 550.217 299.908 550.1 299.776 549.932C299.644 549.76 299.5 549.367 299.344 548.754L298.464 545.284L297.714 545.474L297.512 544.679L298.262 544.489L297.883 542.995L298.744 542.123L299.279 544.23L300.307 543.969L300.508 544.765L299.48 545.026L300.375 548.552C300.449 548.844 300.514 549.027 300.569 549.102C300.628 549.175 300.704 549.227 300.796 549.256C300.891 549.284 301.015 549.279 301.166 549.24C301.28 549.211 301.426 549.16 301.605 549.087ZM301.697 546.827C301.413 545.71 301.514 544.804 301.998 544.108C302.403 543.53 302.979 543.146 303.725 542.957C304.554 542.746 305.301 542.847 305.966 543.258C306.629 543.666 307.083 544.349 307.326 545.307C307.523 546.083 307.56 546.724 307.439 547.231C307.321 547.732 307.069 548.163 306.685 548.522C306.304 548.881 305.851 549.127 305.325 549.261C304.48 549.475 303.728 549.378 303.068 548.969C302.412 548.559 301.955 547.845 301.697 546.827ZM302.747 546.56C302.943 547.332 303.259 547.869 303.694 548.169C304.128 548.466 304.6 548.55 305.111 548.42C305.619 548.291 305.992 547.991 306.231 547.519C306.47 547.048 306.489 546.416 306.288 545.625C306.099 544.879 305.785 544.358 305.347 544.062C304.912 543.761 304.443 543.675 303.94 543.803C303.429 543.933 303.053 544.231 302.813 544.699C302.573 545.167 302.551 545.788 302.747 546.56ZM312.692 544.894L313.73 544.769C313.796 545.49 313.652 546.105 313.297 546.614C312.946 547.118 312.441 547.454 311.782 547.621C310.956 547.831 310.224 547.731 309.584 547.321C308.947 546.906 308.5 546.195 308.245 545.188C308.079 544.537 308.043 543.94 308.135 543.397C308.227 542.853 308.461 542.405 308.839 542.051C309.22 541.693 309.669 541.447 310.188 541.316C310.843 541.149 311.421 541.18 311.922 541.407C312.422 541.631 312.808 542.033 313.08 542.613L312.125 543.018C311.928 542.637 311.682 542.375 311.388 542.232C311.097 542.088 310.782 542.06 310.441 542.146C309.926 542.277 309.555 542.569 309.327 543.021C309.098 543.47 309.085 544.094 309.288 544.893C309.494 545.703 309.798 546.253 310.202 546.541C310.606 546.83 311.057 546.91 311.557 546.784C311.959 546.682 312.262 546.474 312.469 546.159C312.675 545.845 312.749 545.423 312.692 544.894ZM315.138 546.624L313.025 538.298L314.047 538.039L315.252 542.787L317.049 539.719L318.372 539.383L316.634 542.206L320.135 545.355L318.875 545.675L316.099 543.098L315.553 543.974L316.16 546.365L315.138 546.624Z" fill="#4A5565"/>
<path d="M273.091 581.737L275.413 580.885C275.618 581.407 275.929 581.784 276.345 582.017C276.759 582.245 277.185 582.303 277.622 582.192C278.122 582.065 278.494 581.756 278.738 581.265C278.981 580.768 278.998 580.111 278.791 579.293C278.596 578.526 278.277 577.996 277.834 577.704C277.396 577.404 276.901 577.324 276.35 577.464C275.663 577.638 275.124 578.099 274.733 578.845L272.719 579.057L272.296 572.245L278.626 570.638L279.194 572.879L274.679 574.025L274.843 576.242C275.309 575.839 275.82 575.567 276.377 575.426C277.439 575.156 278.437 575.314 279.371 575.899C280.306 576.484 280.929 577.393 281.242 578.625C281.503 579.653 281.437 580.646 281.046 581.604C280.513 582.912 279.525 583.749 278.083 584.115C276.93 584.408 275.912 584.337 275.028 583.902C274.144 583.468 273.498 582.746 273.091 581.737Z" fill="#D08700"/>
<path d="M383.559 514.809C382.201 509.456 385.439 504.014 390.792 502.655L491.92 476.981C497.273 475.622 502.713 478.86 504.072 484.213L516.861 534.615C518.22 539.969 514.982 545.41 509.629 546.769L408.501 572.444C403.148 573.803 397.707 570.565 396.349 565.212L383.559 514.809Z" fill="#FEF2F2"/>
<path d="M399.553 525.192L397.441 516.866L403.461 515.338L403.71 516.321L398.792 517.569L399.439 520.119L404.045 518.95L404.293 519.927L399.687 521.096L400.406 523.93L405.517 522.633L405.766 523.615L399.553 525.192ZM406.476 523.435L407.884 519.74L405.111 517.362L406.388 517.037L407.673 518.216C407.915 518.441 408.113 518.631 408.265 518.785C408.368 518.493 408.465 518.233 408.556 518.004L409.211 516.321L410.432 516.011L409.068 519.379L412.121 522.002L410.866 522.32L409.153 520.76L408.695 520.339L407.714 523.121L406.476 523.435ZM413.56 524.097L411.443 515.754L412.374 515.517L412.573 516.301C412.715 515.939 412.905 515.647 413.143 515.425C413.38 515.2 413.695 515.037 414.089 514.937C414.604 514.806 415.092 514.823 415.553 514.989C416.014 515.154 416.406 515.453 416.73 515.887C417.052 516.317 417.287 516.819 417.433 517.395C417.589 518.012 417.619 518.597 417.521 519.15C417.427 519.698 417.201 520.158 416.844 520.531C416.49 520.899 416.08 521.142 415.615 521.26C415.274 521.346 414.949 521.352 414.64 521.278C414.335 521.202 414.067 521.076 413.837 520.901L414.582 523.837L413.56 524.097ZM413.142 518.569C413.339 519.345 413.642 519.879 414.051 520.17C414.459 520.461 414.887 520.55 415.333 520.437C415.788 520.321 416.127 520.032 416.352 519.567C416.58 519.099 416.591 518.461 416.386 517.654C416.191 516.886 415.886 516.351 415.471 516.049C415.06 515.746 414.635 515.651 414.196 515.762C413.76 515.873 413.426 516.175 413.193 516.67C412.962 517.16 412.946 517.792 413.142 518.569ZM417.639 512.99L417.341 511.814L418.363 511.555L418.661 512.73L417.639 512.99ZM419.453 520.14L417.923 514.109L418.945 513.849L420.476 519.881L419.453 520.14ZM422.026 519.487L420.496 513.456L421.416 513.222L421.648 514.136C421.774 513.649 421.918 513.312 422.08 513.126C422.246 512.938 422.449 512.815 422.687 512.754C423.032 512.667 423.41 512.687 423.821 512.817L423.71 513.855C423.423 513.77 423.154 513.76 422.904 513.823C422.681 513.88 422.497 513.999 422.354 514.181C422.21 514.358 422.13 514.576 422.115 514.834C422.093 515.226 422.137 515.638 422.247 516.07L423.048 519.227L422.026 519.487ZM424.102 511.349L423.804 510.173L424.826 509.914L425.124 511.089L424.102 511.349ZM425.916 518.499L424.386 512.468L425.408 512.208L426.939 518.24L425.916 518.499ZM428.5 517.843L426.97 511.812L427.89 511.578L428.107 512.436C428.382 511.661 428.938 511.167 429.775 510.955C430.138 510.862 430.488 510.844 430.825 510.9C431.164 510.95 431.436 511.063 431.642 511.236C431.847 511.41 432.017 511.635 432.151 511.911C432.237 512.091 432.34 512.417 432.46 512.89L433.401 516.599L432.379 516.859L431.448 513.19C431.343 512.773 431.224 512.473 431.093 512.289C430.96 512.1 430.776 511.972 430.541 511.903C430.309 511.829 430.056 511.826 429.784 511.895C429.348 512.006 429.007 512.24 428.759 512.597C428.515 512.953 428.491 513.517 428.687 514.29L429.523 517.584L428.5 517.843ZM434.914 516.747L435.945 516.642C436.065 516.938 436.237 517.132 436.462 517.225C436.764 517.349 437.134 517.356 437.573 517.245C438.046 517.124 438.388 516.937 438.597 516.682C438.807 516.428 438.914 516.118 438.918 515.755C438.918 515.533 438.832 515.089 438.659 514.424C438.346 515.064 437.856 515.468 437.189 515.637C436.36 515.848 435.643 515.712 435.037 515.229C434.43 514.746 434.021 514.086 433.809 513.249C433.663 512.674 433.632 512.117 433.718 511.58C433.802 511.038 434.007 510.585 434.334 510.22C434.664 509.854 435.096 509.604 435.63 509.468C436.342 509.287 437.002 509.426 437.61 509.884L437.425 509.157L438.368 508.918L439.691 514.132C439.929 515.071 440.001 515.76 439.907 516.199C439.818 516.641 439.594 517.028 439.235 517.361C438.88 517.693 438.399 517.936 437.794 518.089C437.074 518.272 436.452 518.257 435.926 518.044C435.401 517.834 435.064 517.402 434.914 516.747ZM434.841 512.909C435.042 513.7 435.345 514.238 435.752 514.521C436.158 514.805 436.598 514.887 437.071 514.767C437.541 514.647 437.889 514.368 438.116 513.927C438.341 513.483 438.356 512.875 438.16 512.102C437.973 511.364 437.667 510.849 437.243 510.558C436.822 510.266 436.381 510.178 435.919 510.296C435.464 510.411 435.125 510.694 434.901 511.146C434.676 511.594 434.656 512.182 434.841 512.909Z" fill="#4A5565"/>
<path d="M412.14 549.853L409.747 550.461L407.457 541.44C406.79 542.479 405.913 543.346 404.825 544.039L404.274 541.867C404.847 541.504 405.428 540.945 406.016 540.191C406.603 539.432 406.937 538.637 407.016 537.807L408.958 537.313L412.14 549.853ZM423.247 544.667L423.811 546.89L415.42 549.021C415.298 548.157 415.369 547.293 415.633 546.428C415.895 545.557 416.539 544.33 417.564 542.746C418.388 541.466 418.876 540.617 419.03 540.197C419.234 539.619 419.275 539.089 419.152 538.606C419.017 538.073 418.768 537.7 418.406 537.49C418.049 537.272 417.617 537.228 417.112 537.356C416.612 537.483 416.253 537.734 416.034 538.11C415.815 538.486 415.771 539.029 415.903 539.74L413.457 540.107C413.265 538.753 413.471 537.694 414.075 536.93C414.679 536.166 415.543 535.642 416.668 535.356C417.9 535.043 418.953 535.13 419.826 535.615C420.699 536.101 421.26 536.838 421.511 537.826C421.654 538.388 421.688 538.951 421.613 539.514C421.542 540.07 421.359 540.682 421.063 541.349C420.867 541.792 420.479 542.456 419.9 543.34C419.32 544.225 418.957 544.807 418.81 545.086C418.669 545.364 418.564 545.626 418.493 545.874L423.247 544.667Z" fill="#E7000B"/>
</g>
<defs>
<filter id="filter0_d_2022_22" x="-3.1134" y="-3.11493" width="594.694" height="504.545" filterUnits="userSpaceOnUse" color-interpolation-filters="sRGB">
<feFlood flood-opacity="0" result="BackgroundImageFix"/>
<feColorMatrix in="SourceAlpha" type="matrix" values="0 0 0 0 0 0 0 0 0 0 0 0 0 0 0 0 0 0 127 0" result="hardAlpha"/>
<feMorphology radius="12" operator="erode" in="SourceAlpha" result="effect1_dropShadow_2022_22"/>
<feOffset dy="25"/>
<feGaussianBlur stdDeviation="25"/>
<feComposite in2="hardAlpha" operator="out"/>
<feColorMatrix type="matrix" values="0 0 0 0 0 0 0 0 0 0 0 0 0 0 0 0 0 0 0.25 0"/>
<feBlend mode="normal" in2="BackgroundImageFix" result="effect1_dropShadow_2022_22"/>
<feBlend mode="normal" in="SourceGraphic" in2="effect1_dropShadow_2022_22" result="shape"/>
</filter>
<filter id="filter1_d_2022_22" x="-2.71997" y="227.311" width="600.807" height="514.627" filterUnits="userSpaceOnUse" color-interpolation-filters="sRGB">
<feFlood flood-opacity="0" result="BackgroundImageFix"/>
<feColorMatrix in="SourceAlpha" type="matrix" values="0 0 0 0 0 0 0 0 0 0 0 0 0 0 0 0 0 0 127 0" result="hardAlpha"/>
<feMorphology radius="12" operator="erode" in="SourceAlpha" result="effect1_dropShadow_2022_22"/>
<feOffset dy="25"/>
<feGaussianBlur stdDeviation="25"/>
<feComposite in2="hardAlpha" operator="out"/>
<feColorMatrix type="matrix" values="0 0 0 0 0 0 0 0 0 0 0 0 0 0 0 0 0 0 0.25 0"/>
<feBlend mode="normal" in2="BackgroundImageFix" result="effect1_dropShadow_2022_22"/>
<feBlend mode="normal" in="SourceGraphic" in2="effect1_dropShadow_2022_22" result="shape"/>
</filter>
<linearGradient id="paint0_linear_2022_22" x1="21.3665" y1="125.713" x2="429.356" y2="484.75" gradientUnits="userSpaceOnUse">
<stop stop-color="#51A2FF"/>
<stop offset="1" stop-color="#155DFC"/>
</linearGradient>
<linearGradient id="paint1_linear_2022_22" x1="21.8441" y1="355.755" x2="439.59" y2="703.392" gradientUnits="userSpaceOnUse">
<stop stop-color="#51A2FF"/>
<stop offset="1" stop-color="#155DFC"/>
</linearGradient>
<linearGradient id="paint2_linear_2022_22" x1="71.7675" y1="159.986" x2="238.978" y2="406.294" gradientUnits="userSpaceOnUse">
<stop stop-color="#EFF6FF"/>
<stop offset="1" stop-color="#DBEAFE"/>
</linearGradient>
<linearGradient id="paint3_linear_2022_22" x1="73.5309" y1="401.619" x2="247.478" y2="643.217" gradientUnits="userSpaceOnUse">
<stop stop-color="#EFF6FF"/>
<stop offset="1" stop-color="#DBEAFE"/>
</linearGradient>
</defs>
</svg>
