<svg width="200" height="40" viewBox="0 0 200 40" fill="none" xmlns="http://www.w3.org/2000/svg">
<path d="M0 10C0 4.47715 4.47715 0 10 0H30C35.5228 0 40 4.47715 40 10V30C40 35.5228 35.5228 40 30 40H10C4.47715 40 0 35.5228 0 30V10Z" fill="url(#paint0_linear_7_9994)"/>
<path d="M28 21C28 26 24.5 28.5 20.34 29.95C20.1222 30.0238 19.8855 30.0203 19.67 29.94C15.5 28.5 12 26 12 21V14C12 13.7348 12.1054 13.4804 12.2929 13.2929C12.4804 13.1053 12.7348 13 13 13C15 13 17.5 11.8 19.24 10.28C19.4519 10.099 19.7214 9.99954 20 9.99954C20.2786 9.99954 20.5481 10.099 20.76 10.28C22.51 11.81 25 13 27 13C27.2652 13 27.5196 13.1053 27.7071 13.2929C27.8946 13.4804 28 13.7348 28 14V21Z" stroke="white" stroke-width="2" stroke-linecap="round" stroke-linejoin="round"/>
<path d="M17 20L19 22L23 18" stroke="white" stroke-width="2" stroke-linecap="round" stroke-linejoin="round"/>
<path d="M53.517 29V11.5455H60.4034C61.7273 11.5455 62.8551 11.7983 63.7869 12.304C64.7188 12.804 65.429 13.5 65.9176 14.392C66.4119 15.2784 66.6591 16.3011 66.6591 17.4602C66.6591 18.6193 66.4091 19.642 65.9091 20.5284C65.4091 21.4148 64.6847 22.1051 63.7358 22.5994C62.7926 23.0937 61.6506 23.3409 60.3097 23.3409H55.9205V20.3835H59.7131C60.4233 20.3835 61.0085 20.2614 61.4688 20.017C61.9347 19.767 62.2813 19.4233 62.5085 18.9858C62.7415 18.5426 62.858 18.0341 62.858 17.4602C62.858 16.8807 62.7415 16.375 62.5085 15.9432C62.2813 15.5057 61.9347 15.1676 61.4688 14.929C61.0028 14.6847 60.4119 14.5625 59.696 14.5625H57.2074V29H53.517ZM72.6186 21.4318V29H68.9879V11.5455H72.5163V18.2188H72.6697C72.9652 17.446 73.4425 16.8409 74.1016 16.4034C74.7607 15.9602 75.5874 15.7386 76.5817 15.7386C77.4908 15.7386 78.2834 15.9375 78.9595 16.3352C79.6413 16.7273 80.1697 17.2926 80.5447 18.0312C80.9254 18.7642 81.1129 19.642 81.1072 20.6648V29H77.4766V21.3125C77.4822 20.5057 77.2777 19.8778 76.8629 19.429C76.4538 18.9801 75.88 18.7557 75.1413 18.7557C74.647 18.7557 74.2095 18.8608 73.8288 19.071C73.4538 19.2812 73.1584 19.5881 72.9425 19.9915C72.7322 20.3892 72.6243 20.8693 72.6186 21.4318ZM87.6974 29.2472C86.8622 29.2472 86.1179 29.1023 85.4645 28.8125C84.8111 28.517 84.294 28.0824 83.9134 27.5085C83.5384 26.929 83.3509 26.2074 83.3509 25.3438C83.3509 24.6165 83.4844 24.0057 83.7514 23.5114C84.0185 23.017 84.3821 22.6193 84.8423 22.3182C85.3026 22.017 85.8253 21.7898 86.4105 21.6364C87.0014 21.483 87.6207 21.375 88.2685 21.3125C89.0298 21.233 89.6435 21.1591 90.1094 21.0909C90.5753 21.017 90.9134 20.9091 91.1236 20.767C91.3338 20.625 91.4389 20.4148 91.4389 20.1364V20.0852C91.4389 19.5455 91.2685 19.1278 90.9276 18.8324C90.5923 18.5369 90.1151 18.3892 89.4957 18.3892C88.8423 18.3892 88.3224 18.5341 87.9361 18.8239C87.5497 19.108 87.294 19.4659 87.169 19.8977L83.8111 19.625C83.9815 18.8295 84.3168 18.142 84.8168 17.5625C85.3168 16.9773 85.9616 16.5284 86.7514 16.2159C87.5469 15.8977 88.4673 15.7386 89.5128 15.7386C90.2401 15.7386 90.9361 15.8239 91.6009 15.9943C92.2713 16.1648 92.8651 16.429 93.3821 16.7869C93.9048 17.1449 94.3168 17.6051 94.6179 18.1676C94.919 18.7244 95.0696 19.392 95.0696 20.1705V29H91.6264V27.1847H91.5241C91.3139 27.5938 91.0327 27.9545 90.6804 28.267C90.3281 28.5739 89.9048 28.8153 89.4105 28.9915C88.9162 29.1619 88.3452 29.2472 87.6974 29.2472ZM88.7372 26.7415C89.2713 26.7415 89.7429 26.6364 90.152 26.4261C90.5611 26.2102 90.8821 25.9205 91.1151 25.5568C91.348 25.1932 91.4645 24.7812 91.4645 24.321V22.9318C91.3509 23.0057 91.1946 23.0739 90.9957 23.1364C90.8026 23.1932 90.5838 23.2472 90.3395 23.2983C90.0952 23.3437 89.8509 23.3864 89.6065 23.4261C89.3622 23.4602 89.1406 23.4915 88.9418 23.5199C88.5156 23.5824 88.1435 23.6818 87.8253 23.8182C87.5071 23.9545 87.2599 24.1392 87.0838 24.3722C86.9077 24.5994 86.8196 24.8835 86.8196 25.2244C86.8196 25.7188 86.9986 26.0966 87.3565 26.358C87.7202 26.6136 88.1804 26.7415 88.7372 26.7415ZM97.8864 29V15.9091H101.406V18.1932H101.543C101.781 17.3807 102.182 16.767 102.744 16.3523C103.307 15.9318 103.955 15.7216 104.688 15.7216C104.869 15.7216 105.065 15.733 105.276 15.7557C105.486 15.7784 105.67 15.8097 105.83 15.8494V19.071C105.659 19.0199 105.423 18.9744 105.122 18.9347C104.821 18.8949 104.545 18.875 104.295 18.875C103.761 18.875 103.284 18.9915 102.864 19.2244C102.449 19.4517 102.119 19.7699 101.875 20.179C101.636 20.5881 101.517 21.0597 101.517 21.5938V29H97.8864ZM107.707 29V15.9091H111.167V18.2188H111.32C111.593 17.4517 112.048 16.8466 112.684 16.4034C113.32 15.9602 114.082 15.7386 114.968 15.7386C115.866 15.7386 116.63 15.9631 117.261 16.4119C117.891 16.8551 118.312 17.4574 118.522 18.2188H118.658C118.925 17.4688 119.408 16.8693 120.107 16.4205C120.812 15.9659 121.644 15.7386 122.604 15.7386C123.826 15.7386 124.817 16.1278 125.579 16.9062C126.346 17.679 126.729 18.7756 126.729 20.196V29H123.107V20.9119C123.107 20.1847 122.914 19.6392 122.528 19.2756C122.141 18.9119 121.658 18.7301 121.079 18.7301C120.42 18.7301 119.906 18.9403 119.536 19.3608C119.167 19.7756 118.982 20.3239 118.982 21.0057V29H115.462V20.8352C115.462 20.1932 115.278 19.6818 114.908 19.3011C114.545 18.9205 114.065 18.7301 113.468 18.7301C113.065 18.7301 112.701 18.8324 112.377 19.0369C112.059 19.2358 111.806 19.517 111.619 19.8807C111.431 20.2386 111.337 20.6591 111.337 21.142V29H107.707ZM141.239 17.1875C141.12 16.7727 140.952 16.4062 140.737 16.0881C140.521 15.7642 140.256 15.4915 139.944 15.2699C139.637 15.0426 139.285 14.8693 138.887 14.75C138.495 14.6307 138.06 14.571 137.583 14.571C136.691 14.571 135.907 14.7926 135.231 15.2358C134.56 15.679 134.038 16.3239 133.663 17.1705C133.288 18.0114 133.1 19.0398 133.1 20.2557C133.1 21.4716 133.285 22.5057 133.654 23.358C134.023 24.2102 134.546 24.8608 135.222 25.3097C135.898 25.7528 136.697 25.9744 137.617 25.9744C138.452 25.9744 139.165 25.8267 139.756 25.5312C140.353 25.2301 140.808 24.8068 141.12 24.2614C141.438 23.7159 141.597 23.071 141.597 22.3267L142.347 22.4375H137.847V19.6591H145.151V21.858C145.151 23.392 144.827 24.7102 144.18 25.8125C143.532 26.9091 142.64 27.7557 141.504 28.3523C140.367 28.9432 139.066 29.2386 137.6 29.2386C135.964 29.2386 134.526 28.8778 133.288 28.1562C132.049 27.429 131.083 26.3977 130.39 25.0625C129.702 23.7216 129.359 22.1307 129.359 20.2898C129.359 18.875 129.563 17.6136 129.972 16.5057C130.387 15.392 130.967 14.4489 131.711 13.6761C132.455 12.9034 133.322 12.3153 134.31 11.9119C135.299 11.5085 136.37 11.3068 137.523 11.3068C138.512 11.3068 139.433 11.4517 140.285 11.7415C141.137 12.0256 141.893 12.429 142.552 12.9517C143.217 13.4744 143.759 14.0966 144.18 14.8182C144.6 15.5341 144.87 16.3239 144.989 17.1875H141.239ZM156.25 23.4261V15.9091H159.881V29H156.395V26.6222H156.259C155.963 27.3892 155.472 28.0057 154.784 28.4716C154.102 28.9375 153.27 29.1705 152.287 29.1705C151.412 29.1705 150.642 28.9716 149.977 28.5739C149.313 28.1761 148.793 27.6108 148.418 26.8778C148.048 26.1449 147.861 25.267 147.855 24.2443V15.9091H151.486V23.5966C151.491 24.3693 151.699 24.9801 152.108 25.429C152.517 25.8778 153.065 26.1023 153.753 26.1023C154.19 26.1023 154.599 26.0028 154.98 25.804C155.361 25.5994 155.668 25.2983 155.901 24.9006C156.139 24.5028 156.256 24.0114 156.25 23.4261ZM166.518 29.2472C165.683 29.2472 164.938 29.1023 164.285 28.8125C163.631 28.517 163.114 28.0824 162.734 27.5085C162.359 26.929 162.171 26.2074 162.171 25.3438C162.171 24.6165 162.305 24.0057 162.572 23.5114C162.839 23.017 163.202 22.6193 163.663 22.3182C164.123 22.017 164.646 21.7898 165.231 21.6364C165.822 21.483 166.441 21.375 167.089 21.3125C167.85 21.233 168.464 21.1591 168.93 21.0909C169.396 21.017 169.734 20.9091 169.944 20.767C170.154 20.625 170.259 20.4148 170.259 20.1364V20.0852C170.259 19.5455 170.089 19.1278 169.748 18.8324C169.413 18.5369 168.935 18.3892 168.316 18.3892C167.663 18.3892 167.143 18.5341 166.756 18.8239C166.37 19.108 166.114 19.4659 165.989 19.8977L162.631 19.625C162.802 18.8295 163.137 18.142 163.637 17.5625C164.137 16.9773 164.782 16.5284 165.572 16.2159C166.367 15.8977 167.288 15.7386 168.333 15.7386C169.06 15.7386 169.756 15.8239 170.421 15.9943C171.092 16.1648 171.685 16.429 172.202 16.7869C172.725 17.1449 173.137 17.6051 173.438 18.1676C173.739 18.7244 173.89 19.392 173.89 20.1705V29H170.447V27.1847H170.344C170.134 27.5938 169.853 27.9545 169.501 28.267C169.148 28.5739 168.725 28.8153 168.231 28.9915C167.737 29.1619 167.165 29.2472 166.518 29.2472ZM167.558 26.7415C168.092 26.7415 168.563 26.6364 168.972 26.4261C169.381 26.2102 169.702 25.9205 169.935 25.5568C170.168 25.1932 170.285 24.7812 170.285 24.321V22.9318C170.171 23.0057 170.015 23.0739 169.816 23.1364C169.623 23.1932 169.404 23.2472 169.16 23.2983C168.915 23.3437 168.671 23.3864 168.427 23.4261C168.183 23.4602 167.961 23.4915 167.762 23.5199C167.336 23.5824 166.964 23.6818 166.646 23.8182C166.327 23.9545 166.08 24.1392 165.904 24.3722C165.728 24.5994 165.64 24.8835 165.64 25.2244C165.64 25.7188 165.819 26.0966 166.177 26.358C166.54 26.6136 167.001 26.7415 167.558 26.7415ZM176.707 29V15.9091H180.227V18.1932H180.363C180.602 17.3807 181.002 16.767 181.565 16.3523C182.127 15.9318 182.775 15.7216 183.508 15.7216C183.69 15.7216 183.886 15.733 184.096 15.7557C184.306 15.7784 184.491 15.8097 184.65 15.8494V19.071C184.479 19.0199 184.244 18.9744 183.942 18.9347C183.641 18.8949 183.366 18.875 183.116 18.875C182.582 18.875 182.104 18.9915 181.684 19.2244C181.269 19.4517 180.94 19.7699 180.695 20.179C180.457 20.5881 180.337 21.0597 180.337 21.5938V29H176.707ZM190.741 29.2131C189.747 29.2131 188.847 28.9574 188.04 28.446C187.239 27.929 186.602 27.1705 186.131 26.1705C185.665 25.1648 185.432 23.9318 185.432 22.4716C185.432 20.9716 185.673 19.7244 186.156 18.7301C186.639 17.7301 187.281 16.983 188.082 16.4886C188.889 15.9886 189.773 15.7386 190.733 15.7386C191.466 15.7386 192.077 15.8636 192.565 16.1136C193.06 16.358 193.457 16.6648 193.759 17.0341C194.065 17.3977 194.298 17.7557 194.457 18.108H194.568V11.5455H198.19V29H194.611V26.9034H194.457C194.287 27.267 194.045 27.6278 193.733 27.9858C193.426 28.3381 193.026 28.6307 192.531 28.8636C192.043 29.0966 191.446 29.2131 190.741 29.2131ZM191.892 26.3239C192.477 26.3239 192.972 26.1648 193.375 25.8466C193.784 25.5227 194.097 25.071 194.312 24.4915C194.534 23.9119 194.645 23.233 194.645 22.4545C194.645 21.6761 194.537 21 194.321 20.4261C194.105 19.8523 193.793 19.4091 193.384 19.0966C192.974 18.7841 192.477 18.6278 191.892 18.6278C191.295 18.6278 190.793 18.7898 190.384 19.1136C189.974 19.4375 189.665 19.8864 189.455 20.4602C189.244 21.0341 189.139 21.6989 189.139 22.4545C189.139 23.2159 189.244 23.8892 189.455 24.4744C189.67 25.054 189.98 25.5085 190.384 25.8381C190.793 26.1619 191.295 26.3239 191.892 26.3239Z" fill="#155DFC"/>
<defs>
<linearGradient id="paint0_linear_7_9994" x1="5.24508e-07" y1="4.72322" x2="40" y2="35.2768" gradientUnits="userSpaceOnUse">
<stop stop-color="#155DFC"/>
<stop offset="1" stop-color="#193CB8"/>
</linearGradient>
</defs>
</svg>
