<svg width="26" height="26" viewBox="0 0 26 26" fill="none" xmlns="http://www.w3.org/2000/svg">
<path d="M19.5007 11.917H15.1673C14.88 11.917 14.6044 12.0311 14.4013 12.2343C14.1981 12.4375 14.084 12.713 14.084 13.0003V18.417C14.084 18.7043 14.1981 18.9799 14.4013 19.183C14.6044 19.3862 14.88 19.5003 15.1673 19.5003H19.5007" stroke="#155DFC" stroke-width="2" stroke-linecap="round" stroke-linejoin="round"/>
<path d="M6.5 7.58301V21.6663C6.5 22.241 6.72827 22.7921 7.1346 23.1984C7.54093 23.6047 8.09203 23.833 8.66667 23.833H17.3333C17.908 23.833 18.4591 23.6047 18.8654 23.1984C19.2717 22.7921 19.5 22.241 19.5 21.6663V7.58301" stroke="#155DFC" stroke-width="2" stroke-linecap="round" stroke-linejoin="round"/>
<path d="M20.584 2.16699H5.41732C4.81901 2.16699 4.33398 2.65202 4.33398 3.25033V6.50033C4.33398 7.09863 4.81901 7.58366 5.41732 7.58366H20.584C21.1823 7.58366 21.6673 7.09863 21.6673 6.50033V3.25033C21.6673 2.65202 21.1823 2.16699 20.584 2.16699Z" stroke="#155DFC" stroke-width="2" stroke-linecap="round" stroke-linejoin="round"/>
</svg>
