<svg width="48" height="48" viewBox="0 0 48 48" fill="none" xmlns="http://www.w3.org/2000/svg">
<rect width="48" height="48" rx="24" fill="#DBEAFE"/>
<path d="M20 34C20.5523 34 21 33.5523 21 33C21 32.4477 20.5523 32 20 32C19.4477 32 19 32.4477 19 33C19 33.5523 19.4477 34 20 34Z" stroke="#155DFC" stroke-width="2" stroke-linecap="round" stroke-linejoin="round"/>
<path d="M31 34C31.5523 34 32 33.5523 32 33C32 32.4477 31.5523 32 31 32C30.4477 32 30 32.4477 30 33C30 33.5523 30.4477 34 31 34Z" stroke="#155DFC" stroke-width="2" stroke-linecap="round" stroke-linejoin="round"/>
<path d="M14.0498 14.0498H16.0498L18.7098 26.4698C18.8074 26.9247 19.0605 27.3313 19.4255 27.6197C19.7906 27.908 20.2447 28.0602 20.7098 28.0498H30.4898C30.945 28.0491 31.3863 27.8931 31.7408 27.6076C32.0954 27.3222 32.3419 26.9243 32.4398 26.4798L34.0898 19.0498H17.1198" stroke="#155DFC" stroke-width="2" stroke-linecap="round" stroke-linejoin="round"/>
</svg>
