<svg width="48" height="48" viewBox="0 0 48 48" fill="none" xmlns="http://www.w3.org/2000/svg">
<path d="M0 24C0 10.7452 10.7452 0 24 0C37.2548 0 48 10.7452 48 24C48 37.2548 37.2548 48 24 48C10.7452 48 0 37.2548 0 24Z" fill="#FEFCE8"/>
<path d="M20 14V18" stroke="#D08700" stroke-width="2" stroke-linecap="round" stroke-linejoin="round"/>
<path d="M28 14V18" stroke="#D08700" stroke-width="2" stroke-linecap="round" stroke-linejoin="round"/>
<path d="M31 16H17C15.8954 16 15 16.8954 15 18V32C15 33.1046 15.8954 34 17 34H31C32.1046 34 33 33.1046 33 32V18C33 16.8954 32.1046 16 31 16Z" stroke="#D08700" stroke-width="2" stroke-linecap="round" stroke-linejoin="round"/>
<path d="M15 22H33" stroke="#D08700" stroke-width="2" stroke-linecap="round" stroke-linejoin="round"/>
</svg>
