<svg width="46" height="65" viewBox="0 0 46 65" fill="none" xmlns="http://www.w3.org/2000/svg">
<g clip-path="url(#clip0_552_1059)">
<path d="M21.2409 32.5213C21.1853 32.3716 21.1853 32.207 21.2409 32.0573C21.782 30.7452 22.7006 29.6233 23.8801 28.8339C25.0596 28.0445 26.4469 27.623 27.8662 27.623C29.2855 27.623 30.6729 28.0445 31.8524 28.8339C33.0319 29.6233 33.9504 30.7452 34.4916 32.0573C34.5471 32.207 34.5471 32.3716 34.4916 32.5213C33.9504 33.8334 33.0319 34.9553 31.8524 35.7447C30.6729 36.5341 29.2855 36.9556 27.8662 36.9556C26.4469 36.9556 25.0596 36.5341 23.8801 35.7447C22.7006 34.9553 21.782 33.8334 21.2409 32.5213Z" stroke="#155DFC" stroke-width="1.33333" stroke-linecap="round" stroke-linejoin="round"/>
<path d="M27.8672 34.2891C28.9718 34.2891 29.8672 33.3936 29.8672 32.2891C29.8672 31.1845 28.9718 30.2891 27.8672 30.2891C26.7626 30.2891 25.8672 31.1845 25.8672 32.2891C25.8672 33.3936 26.7626 34.2891 27.8672 34.2891Z" stroke="#155DFC" stroke-width="1.33333" stroke-linecap="round" stroke-linejoin="round"/>
</g>
<defs>
<clipPath id="clip0_552_1059">
<rect width="16" height="16" fill="white" transform="translate(19.8672 24.2891)"/>
</clipPath>
</defs>
</svg>
