<svg width="48" height="48" viewBox="0 0 48 48" fill="none" xmlns="http://www.w3.org/2000/svg">
<path d="M0 24C0 10.7452 10.7452 0 24 0C37.2548 0 48 10.7452 48 24C48 37.2548 37.2548 48 24 48C10.7452 48 0 37.2548 0 24Z" fill="#FEF2F2"/>
<path d="M33.7304 30.0002L25.7304 16.0002C25.556 15.6924 25.303 15.4364 24.9973 15.2583C24.6917 15.0802 24.3442 14.9863 23.9904 14.9863C23.6366 14.9863 23.2892 15.0802 22.9835 15.2583C22.6778 15.4364 22.4249 15.6924 22.2504 16.0002L14.2504 30.0002C14.0741 30.3056 13.9816 30.6521 13.9824 31.0047C13.9832 31.3573 14.0772 31.7035 14.2549 32.008C14.4325 32.3126 14.6876 32.5648 14.9941 32.7391C15.3007 32.9133 15.6478 33.0034 16.0004 33.0002H32.0004C32.3513 32.9999 32.6959 32.9072 32.9997 32.7315C33.3035 32.5558 33.5556 32.3033 33.7309 31.9993C33.9062 31.6954 33.9985 31.3506 33.9984 30.9997C33.9983 30.6488 33.9059 30.3041 33.7304 30.0002Z" stroke="#E7000B" stroke-width="2" stroke-linecap="round" stroke-linejoin="round"/>
<path d="M24 21V25" stroke="#E7000B" stroke-width="2" stroke-linecap="round" stroke-linejoin="round"/>
<path d="M24 29H24.01" stroke="#E7000B" stroke-width="2" stroke-linecap="round" stroke-linejoin="round"/>
</svg>
